<svg xmlns="http://www.w3.org/2000/svg" viewBox="0 0 1085.25 678.62"><defs><style>.cls-1,.cls-2,.cls-3{fill:none;stroke:#f8f4f1;}.cls-1,.cls-3{stroke-miterlimit:10;}.cls-1{stroke-width:6px;}.cls-2{stroke-linecap:round;stroke-linejoin:round;stroke-width:9px;}.cls-3{stroke-width:4px;}.cls-4{font-size:60.54px;fill:#f8f4f1;font-family:OpenSans, Open Sans;letter-spacing:0.09em;}.cls-5{fill:#154cad;}</style></defs><title>logo</title><g id="Layer_2" data-name="Layer 2"><g id="Layer_9" data-name="Layer 9"><path class="cls-1" d="M251.08,178.6"/><path class="cls-1" d="M866.64,423.28"/><path class="cls-2" d="M832.81,213.51C721.41,21.14,576.52,27.27,476.32,68.59"/><path class="cls-2" d="M229.08,458.28c124.66,373,613,188,629.51,0"/><path class="cls-2" d="M556.81,4.51S322.69.14,244.88,213.6"/><line class="cls-3" x1="457.11" y1="523.06" x2="629.56" y2="523.06"/><text class="cls-4" transform="translate(382.61 596.58) scale(1.1 1)">EST 2010</text><path class="cls-5" d="M5.49,426.33H0v-64H5.49q0,25.82,18.54,43.94T69.2,424.41q11,0,17.71-6.45t6.73-17.16q0-12.08-15.65-20.6-8.52-4.39-29.38-13.87T19.22,350.26q-17-13.18-15-34.88T20.6,281.75A48.94,48.94,0,0,1,52.86,269.8a102.24,102.24,0,0,1,32.4,4.81q14.42,4.81,16.34,4.81,5.49,0,5.49-9.61h5.49v50.25H107.1q0-19.77-14.55-32.27T55.2,275.3q-10.16,0-15.93,5.9t-5.77,13q0,7.14,1.92,11a18.59,18.59,0,0,0,6.73,7q4.8,3.16,8.38,5.08t11.4,5.22q7.83,3.3,10.85,4.67l17.85,8.1q2.74,1.24,8,4a45.81,45.81,0,0,1,7.83,4.94q2.61,2.2,6.73,5.49a23.8,23.8,0,0,1,6,6.73q1.92,3.44,3.84,7.83,3.84,8.79,2.75,20.6-2.2,22.24-16.61,33.91T70.3,430.45q-22,0-43.66-11.26-7.41-3.84-11-3.84Q5.49,415.35,5.49,426.33Z"/><path class="cls-5" d="M145,363.17q0-32.4,18.95-49.16t48.19-16.75q29.25,0,43.53,14.69t10.16,30.34a19.17,19.17,0,0,1-9.2,12.49,20.39,20.39,0,0,1-15.24,2.06q-17.3-4.12-17.3-20a119.9,119.9,0,0,1,1-12.49,74.4,74.4,0,0,0,.69-12.22,13.23,13.23,0,0,0-1.65-6q-2.75-4.67-12.91-3.57-24.72,3.85-24.72,60.55t40.37,56.71a41.22,41.22,0,0,0,18.95-4.94q9.61-4.94,14.28-11.81l3.84,2.75q-6.32,10.44-18.95,16.75a62.39,62.39,0,0,1-28.28,6.32Q145,428.8,145,363.17Z"/><path class="cls-5" d="M428.19,420.84h13.73v5.49H373.27v-5.49H387V343.95q0-19.5-5.77-27.74T363.93,308q-15.65,0-25,16.48v96.39h13.73v5.49H284v-5.49h13.73v-173H284v-5.49h54.92v71.95q5.21-7.41,16.2-12.36A58.2,58.2,0,0,1,379.31,297q48.88,0,48.88,53Z"/><path class="cls-5" d="M477.62,426.33V305.5H463.88V300h54.92V426.33q0,60.41-54.37,60.41-20.87,0-30.21-7.83t-9.34-19.09q0-6.59,4.26-10.3a14.78,14.78,0,0,1,10-3.71q14.83,0,14.83,17.71t10.44,17.71q7.68,0,10.44-13.32T477.62,426.33Zm20.46-187a23,23,0,0,1,17,7.14,23.64,23.64,0,0,1,7,17.16,23.91,23.91,0,0,1-24,24,23.63,23.63,0,0,1-17.16-7,22.94,22.94,0,0,1-7.14-17,24.38,24.38,0,0,1,24.3-24.3Z"/><path class="cls-5" d="M686.11,363.72a65.36,65.36,0,0,1-6.32,29.11A55.08,55.08,0,0,1,663,413.42a76.92,76.92,0,0,1-47.37,15.65,70.4,70.4,0,0,1-46.55-16.75l-17.58,16.75-3.84-3.84,17.58-16.48q-17.58-17.57-17.58-45,0-16.75,6.18-29.93a54.61,54.61,0,0,1,16.34-20.87A78.29,78.29,0,0,1,618,297.26q26.63,0,46.68,16.75l17.58-16.75,3.84,3.84-17.58,16.75Q686.11,336,686.11,363.72Zm-69.48-61q-14.83,0-20.87,14.14t-6,46.82q0,11.81.82,20.87l51.9-49.43q-2.2-16.75-8.38-24.58T616.64,302.76Zm0,120.83q14.83,0,21.15-14t6.32-45.86q0-12.08-.82-22l-52.18,49.7q2.2,16.75,8.38,24.44T616.64,423.59Z"/><path class="cls-5" d="M760.94,429.63q-22.24,0-38.45-17.58t-16.2-49.7q0-32.13,15.93-50.25T760.94,294a48.93,48.93,0,0,1,21.15,4.67,28.78,28.78,0,0,1,14.28,14V247.83H782.63v-5.49h54.92v178.5h13.73v5.49H796.36V413.7Q788.95,429.63,760.94,429.63Zm35.43-63.44V320.88q-7.41-14.83-19.36-14.83t-20.46,13.73Q748,333.52,748,363.31t8.79,43.53q8.79,13.73,21.15,11.81,6.86-1.09,10.44-4.39Q796.36,406.56,796.36,366.19Z"/><path class="cls-5" d="M921,305.5v67q0,23.62,1.92,28.7a50.39,50.39,0,0,0,4.12,8.65q4.12,7.14,14.42,7.14t14.42-2.75v5.49a48.82,48.82,0,0,1-28.83,9.34q-23.07,0-35.15-11t-12.08-39.27V305.5H859.52V300h20.32q13.18-2.19,23.34-12.77t14-29.25H921v42h31.85v5.49Z"/><path class="cls-5" d="M1031.43,424.13q28.56,0,28.56-15.65,0-8.79-9.89-14.42a96.57,96.57,0,0,0-23.89-9.2q-14-3.57-27.6-8.24a51.64,51.64,0,0,1-22.52-14.83q-8.93-10.16-7.28-26.64T985.7,308q15.24-10.71,37.62-10.71t36.11,7.14q13.73,7.14,15.38,19.22a21.46,21.46,0,0,1-2.33,13.73q-3.44,6.32-11.26,6.59t-12.91-4.12q-5.08-4.39-4.81-10.16a16.07,16.07,0,0,1,4.39-10.3q4.12-4.53,4.12-7.28,0-4.67-8.92-7a81.91,81.91,0,0,0-20.6-2.33q-11.68,0-19.09,5.22T996,320.88q0,7.69,9.2,13.18a85.61,85.61,0,0,0,22.38,8.92q13.18,3.44,26.23,7.69a54.48,54.48,0,0,1,22.24,13.59q9.2,9.34,9.2,23.62,0,18.95-13.46,30.34t-40.64,11.4q-27.19,0-44.08-8.24t-18.54-21.15A20.9,20.9,0,0,1,971,386.51q3.57-6.31,11.26-6.59A17.83,17.83,0,0,1,995,384q5.08,4.4,4.81,10.16a16.09,16.09,0,0,1-4.39,10.3q-4.12,4.53-4.12,7.28,0,5.5,12.77,8.92A104.76,104.76,0,0,0,1031.43,424.13Z"/></g></g></svg>
