<svg xmlns="http://www.w3.org/2000/svg" viewBox="0 0 141.84 16.62"><defs><style>.cls-1{fill:#f2a6a3;}.cls-2{fill:#5777b2;}.cls-3{fill:#efddd0;}.cls-4{fill:#e2c7b5;}.cls-5{fill:#234f9e;}.cls-6{fill:#b0d3d7;}.cls-7{fill:#f8f4f1;}.cls-8{fill:#24509d;}</style></defs><title>erh</title><g id="Lag_2" data-name="Lag 2"><g id="klik"><polygon class="cls-1" points="0 13.2 0 14.96 0 16.62 141.79 16.62 141.79 13.2 0 13.2"/><rect class="cls-2" x="15.43" y="15.2" width="37.18" height="1.42"/><rect class="cls-3" x="65.39" y="15.31" width="30.92" height="1.3"/><rect class="cls-4" x="44.62" y="13.2" width="47.75" height="1.71"/><rect class="cls-5" x="97.26" y="15.03" width="10.19" height="1.57"/><rect class="cls-6" x="96.17" y="13.2" width="45.67" height="1.71"/><rect class="cls-6" y="13.2" width="22.55" height="1.76"/><rect class="cls-4" y="15.58" width="6.76" height="1.04"/><polyline class="cls-7" points="0 14.96 20.81 14.91 22.41 13.2 24.54 13.2 23.27 14.91 42.49 14.91 43.99 13.2 45.74 13.2 44.62 14.91 90.68 14.45 92.06 13.2 93.69 13.2 92.69 14.08 94.94 14.08 95.81 13.2 98.07 13.2 97.07 14.45 141.79 14.08 141.79 15.31 107.45 15.31 109.46 16.62 107.2 16.62 105.2 15.31 97.57 15.31 99.19 16.62 96.31 16.62 94.62 15.31 65.39 15.31 67.07 16.62 65.18 16.62 63.51 15.31 53.35 15.31 54.39 16.62 52.61 16.62 51.57 15.31 15.74 15.49 16.86 16.62 14.9 16.62 13.73 15.58 7.82 15.63 8.82 16.62 6.76 16.62 5.83 15.53 0 15.58"/><path class="cls-8" d="M8,10.82c1.63,0,2.45-.93,2.45-2.79h.33v3.11H3.1v-.32h.82V2.31H3.1V2h7.53V4.76H10.3a2.51,2.51,0,0,0-.58-1.95,2.82,2.82,0,0,0-1.88-.5H6.37V6.23H7a2.41,2.41,0,0,0,1.49-.29,1.69,1.69,0,0,0,.31-1.18h.32V8H8.83a1.67,1.67,0,0,0-.31-1.19A2.51,2.51,0,0,0,7,6.56H6.37v4.26Z"/><path class="cls-8" d="M16.11,11.14H12v-.32h.82V3.94H12V3.62h3.27V5.56a3.19,3.19,0,0,1,.53-1.31,2,2,0,0,1,.85-.67,2.67,2.67,0,0,1,.9-.16,2.2,2.2,0,0,1,.84.16A1.06,1.06,0,0,1,19,4.2a1.16,1.16,0,0,1,0,.93,1.14,1.14,0,0,1-.63.66,1.05,1.05,0,0,1-.83,0,1.1,1.1,0,0,1-.54-.4A2,2,0,0,1,16.8,5c-.11-.41-.26-.61-.45-.61s-.43.36-.68,1.07a6.84,6.84,0,0,0-.38,2.27v3.13h.82Z"/><path class="cls-8" d="M28.51,10.82h.82v.32H25.24v-.32h.82V6.23a3,3,0,0,0-.35-1.65,1.17,1.17,0,0,0-1-.49,1.68,1.68,0,0,0-1.49,1v5.75H24v.32H19.92v-.32h.82V.51h-.82V.18h3.27V4.47a2.29,2.29,0,0,1,1-.74,3.56,3.56,0,0,1,1.44-.29q2.91,0,2.91,3.15Z"/><path class="cls-8" d="M38.43,3.62v.32h-.8l-3.06,7.2h-.3l-3.63-7.2H30V3.62h4.26v.32h-.82l2,4.26,1.82-4.26H36V3.62Z"/><path class="cls-8" d="M46.48,7.87H41.54c.11,1.92.85,2.88,2.24,2.88a3.88,3.88,0,0,0,1.27-.26,2.13,2.13,0,0,0,1-.74l.22.17a2.59,2.59,0,0,1-1.22,1,4.08,4.08,0,0,1-1.73.4,6.69,6.69,0,0,1-1.55-.17,4.77,4.77,0,0,1-1.34-.59,2.76,2.76,0,0,1-1-1.22,4.76,4.76,0,0,1-.37-2,3.71,3.71,0,0,1,1.1-2.94,3.9,3.9,0,0,1,2.66-1,3.5,3.5,0,0,1,2.6,1A4.66,4.66,0,0,1,46.48,7.87Zm-5-.33h2.67a9.81,9.81,0,0,0-.32-2.63c-.21-.75-.56-1.13-1-1.13s-.81.36-1,1.09a9,9,0,0,0-.31,2.49Z"/><path class="cls-8" d="M51.76,11.14H47.67v-.32h.82V3.94h-.82V3.62H51V5.56a2.94,2.94,0,0,1,.53-1.31,1.89,1.89,0,0,1,.85-.67,2.67,2.67,0,0,1,.9-.16,2.12,2.12,0,0,1,.83.16,1.05,1.05,0,0,1,.6.62,1.2,1.2,0,0,1,0,.93,1.14,1.14,0,0,1-.63.66,1.06,1.06,0,0,1-.83,0,1.1,1.1,0,0,1-.54-.4A1.74,1.74,0,0,1,52.45,5c-.11-.41-.26-.61-.44-.61s-.44.36-.69,1.07A6.84,6.84,0,0,0,51,7.69v3.13h.81Z"/><path class="cls-8" d="M63.53,3.62v.32h-.8l-3.06,7.2h-.3l-3.63-7.2h-.65V3.62h4.25v.32h-.82l2,4.26,1.82-4.26h-1.3V3.62Z"/><path class="cls-8" d="M68,11c1.13,0,1.7-.31,1.7-.93a1,1,0,0,0-.59-.86,5.84,5.84,0,0,0-1.42-.55c-.56-.14-1.11-.3-1.65-.49a3.08,3.08,0,0,1-1.34-.88,2,2,0,0,1-.43-1.59,2.21,2.21,0,0,1,1-1.62,3.88,3.88,0,0,1,2.25-.64,4.62,4.62,0,0,1,2.15.43A1.51,1.51,0,0,1,70.61,5a1.22,1.22,0,0,1-.14.82.73.73,0,0,1-.67.39A1.07,1.07,0,0,1,69,6a.75.75,0,0,1-.28-.61A1,1,0,0,1,69,4.77a.78.78,0,0,0,.25-.43q0-.28-.54-.42a4.93,4.93,0,0,0-1.22-.14,1.9,1.9,0,0,0-1.14.31.9.9,0,0,0-.44.77.93.93,0,0,0,.55.79,5.5,5.5,0,0,0,1.33.53c.52.13,1,.29,1.56.46a3.19,3.19,0,0,1,1.33.81,1.94,1.94,0,0,1,.55,1.4,2.23,2.23,0,0,1-.81,1.81,3.68,3.68,0,0,1-2.42.68,6,6,0,0,1-2.62-.49,1.72,1.72,0,0,1-1.11-1.26,1.28,1.28,0,0,1,.15-.82.74.74,0,0,1,.67-.39,1.09,1.09,0,0,1,.76.24.76.76,0,0,1,.29.61.92.92,0,0,1-.27.61.77.77,0,0,0-.24.44c0,.22.25.39.76.53A6.56,6.56,0,0,0,68,11Z"/><path class="cls-8" d="M79.35,7.87H74.41c.11,1.92.86,2.88,2.24,2.88a3.83,3.83,0,0,0,1.27-.26,2.13,2.13,0,0,0,1-.74l.23.17a2.62,2.62,0,0,1-1.23,1,4,4,0,0,1-1.73.4,6.6,6.6,0,0,1-1.54-.17,4.54,4.54,0,0,1-1.34-.59,2.72,2.72,0,0,1-1-1.22,4.93,4.93,0,0,1-.36-2,3.7,3.7,0,0,1,1.09-2.94,3.9,3.9,0,0,1,2.66-1,3.5,3.5,0,0,1,2.6,1A4.61,4.61,0,0,1,79.35,7.87Zm-5-.33h2.67a9.81,9.81,0,0,0-.32-2.63c-.21-.75-.55-1.13-1-1.13s-.81.36-1,1.09a9.37,9.37,0,0,0-.31,2.49Z"/><path class="cls-8" d="M84.64,11.14H80.55v-.32h.81V3.94h-.81V3.62h3.27V5.56a3.06,3.06,0,0,1,.53-1.31,2,2,0,0,1,.85-.67,2.67,2.67,0,0,1,.9-.16,2.2,2.2,0,0,1,.84.16,1.06,1.06,0,0,1,.59.62,1.2,1.2,0,0,1,0,.93,1.14,1.14,0,0,1-.63.66,1.06,1.06,0,0,1-.83,0,1.1,1.1,0,0,1-.54-.4A2.08,2.08,0,0,1,85.32,5c-.1-.41-.25-.61-.44-.61s-.43.36-.68,1.07a6.6,6.6,0,0,0-.38,2.27v3.13h.82Z"/><path class="cls-8" d="M92.54,11.14H88.45v-.32h.82V3.94h-1V3.62h1q0-3.6,3.24-3.6A2.78,2.78,0,0,1,94.26.5a1.4,1.4,0,0,1,.6,1.12.75.75,0,0,1-.25.61.88.88,0,0,1-.6.23c-.59,0-.88-.36-.88-1.06S92.92.34,92.51.34s-.52.27-.62.8a13.26,13.26,0,0,0-.17,2.48h2.13v.32H91.72v6.88h.82Z"/><path class="cls-8" d="M102.83,11.1a4.15,4.15,0,0,1-1.06.13c-.9,0-1.46-.27-1.69-.81a3.3,3.3,0,0,1-2.5.85,2.46,2.46,0,0,1-1.48-.41,1.42,1.42,0,0,1-.58-1.24,1.94,1.94,0,0,1,.85-1.69,6.78,6.78,0,0,1,3-.84L100,7V6.2a5.62,5.62,0,0,0-.21-1.91A.82.82,0,0,0,99,3.8a1.24,1.24,0,0,0-.81.17.37.37,0,0,0-.13.39,4.9,4.9,0,0,0,.16.58,1.86,1.86,0,0,1,.11.57,1.21,1.21,0,0,1-1.2,1.22,1.18,1.18,0,0,1-.86-.36,1.15,1.15,0,0,1-.36-.86,1.74,1.74,0,0,1,.86-1.43,4.5,4.5,0,0,1,2.57-.59,3.56,3.56,0,0,1,2.44.67,3.14,3.14,0,0,1,.73,2.37V9.47a1.77,1.77,0,0,0,.21,1.09q.21.22.78.09v.17A1.33,1.33,0,0,1,102.83,11.1Zm-4.58-.85a1.25,1.25,0,0,0,.88.34,1.1,1.1,0,0,0,.87-.49V7.31l-.59.09A2,2,0,0,0,98.19,8a1.64,1.64,0,0,0-.4,1.32A1.51,1.51,0,0,0,98.25,10.25Z"/><path class="cls-8" d="M108.53,11.14h-4.09v-.32h.81V3.94h-.81V3.62h3.27V5.56a3.06,3.06,0,0,1,.53-1.31,2,2,0,0,1,.85-.67,2.67,2.67,0,0,1,.9-.16,2.2,2.2,0,0,1,.84.16,1.06,1.06,0,0,1,.59.62,1.2,1.2,0,0,1,0,.93,1.14,1.14,0,0,1-.63.66,1.06,1.06,0,0,1-.83,0,1.1,1.1,0,0,1-.54-.4,2.08,2.08,0,0,1-.23-.48c-.1-.41-.25-.61-.44-.61s-.43.36-.68,1.07a6.6,6.6,0,0,0-.38,2.27v3.13h.82Z"/><path class="cls-8" d="M115.61,10.82h.82v.32h-4.09v-.32h.82V3.94h-.66V3.62h3.11Zm.15-9.37a1.37,1.37,0,0,1-.42,1,1.37,1.37,0,0,1-1,.42,1.39,1.39,0,0,1-1-.42,1.34,1.34,0,0,1-.43-1,1.36,1.36,0,0,1,.43-1,1.36,1.36,0,0,1,1-.43,1.34,1.34,0,0,1,1,.43A1.39,1.39,0,0,1,115.76,1.45Z"/><path class="cls-8" d="M126.17,10.82H127v.32h-4.09v-.32h.82V6.23a3,3,0,0,0-.34-1.65,1.17,1.17,0,0,0-1-.49,1.68,1.68,0,0,0-1.49,1v5.75h.82v.32h-4.09v-.32h.81V3.94h-.81V3.62h3.27v.85a2.36,2.36,0,0,1,1-.73,3.43,3.43,0,0,1,1.43-.3q2.93,0,2.92,3.15Z"/><path class="cls-8" d="M130.13,9.62c0,.31.19.48.59.53h2.81a2.67,2.67,0,0,1,2,.62,1.7,1.7,0,0,1,.4,1.54A2.91,2.91,0,0,1,134.84,14a4.07,4.07,0,0,1-2.62.77q-3.06,0-3.93-.9A1,1,0,0,1,128,13a1.22,1.22,0,0,1,.36-.79,1.69,1.69,0,0,1,.7-.42,1.36,1.36,0,0,1-.52-1.09,1.82,1.82,0,0,1,.4-1.17,3.15,3.15,0,0,1,.92-.83A2.5,2.5,0,0,1,128,6.25a2.26,2.26,0,0,1,1.22-2A5.22,5.22,0,0,1,132,3.47a5,5,0,0,1,1.47.23,2,2,0,0,1-.38-1.21,1.56,1.56,0,0,1,.48-1.17,1.7,1.7,0,0,1,1.21-.47,1.43,1.43,0,0,1,1.1.39,1.18,1.18,0,0,1,.37.85,1.2,1.2,0,0,1-.29.81.93.93,0,0,1-.75.32.92.92,0,0,1-.74-.31.9.9,0,0,1-.28-.63,1.18,1.18,0,0,1,.12-.55,1.5,1.5,0,0,0,.12-.27c0-.18-.14-.23-.32-.15a1,1,0,0,0-.49.47,1.62,1.62,0,0,0-.2.81A1.67,1.67,0,0,0,134.2,4a2.39,2.39,0,0,1,1.41,2.17,2.31,2.31,0,0,1-1.16,2.1A5.13,5.13,0,0,1,131.7,9a5,5,0,0,1-1.36-.17A1.51,1.51,0,0,0,130.13,9.62Zm3.3,2.65h-2.75a2.8,2.8,0,0,1-1.32-.28A1.67,1.67,0,0,0,130,13.8a3.69,3.69,0,0,0,2.27.63,3.84,3.84,0,0,0,2.39-.72,1.08,1.08,0,0,0,.49-.65c0-.22-.09-.41-.38-.56A2.83,2.83,0,0,0,133.43,12.27Zm-.28-6.06a4,4,0,0,0-.32-1.91,1.11,1.11,0,0,0-1-.5,1,1,0,0,0-.94.51,4.33,4.33,0,0,0-.29,1.89,4.22,4.22,0,0,0,.31,1.93,1,1,0,0,0,.94.56,1.06,1.06,0,0,0,1-.54A4.18,4.18,0,0,0,133.15,6.21Z"/></g></g></svg>
