<svg xmlns="http://www.w3.org/2000/svg" viewBox="0 0 147.87 23.06"><defs><style>.cls-1{font-size:16.36px;fill:#24509d;font-family:RozhaOne-Regular, Rozha One;}.cls-2{fill:#f2a6a3;}.cls-3{fill:#5777b2;}.cls-4{fill:#efddd0;}.cls-5{fill:#e2c7b5;}.cls-6{fill:#234f9e;}.cls-7{fill:#b0d3d7;}.cls-8{fill:#f8f4f1;}</style></defs><title>erh</title><g id="Lag_2" data-name="Lag 2"><g id="klik"><text class="cls-1" transform="translate(4.45 12.76)">Erhvervserfaring</text><polygon class="cls-2" points="0 18.07 0 20.64 0 23.06 147.81 23.06 147.81 18.07 0 18.07"/><rect class="cls-3" x="16.09" y="20.99" width="38.76" height="2.06"/><rect class="cls-4" x="68.17" y="21.16" width="32.24" height="1.9"/><rect class="cls-5" x="46.51" y="18.07" width="49.77" height="2.49"/><rect class="cls-6" x="101.39" y="20.75" width="10.63" height="2.29"/><rect class="cls-7" x="100.26" y="18.07" width="47.61" height="2.49"/><rect class="cls-7" y="18.07" width="23.51" height="2.57"/><rect class="cls-5" y="21.54" width="7.04" height="1.52"/><polyline class="cls-8" points="0 20.64 21.7 20.56 23.36 18.07 25.58 18.07 24.26 20.56 44.29 20.56 45.86 18.07 47.69 18.07 46.51 20.56 94.53 19.89 95.97 18.07 97.67 18.07 96.62 19.36 98.97 19.36 99.89 18.07 102.23 18.07 101.19 19.89 147.81 19.36 147.81 21.16 112.02 21.16 114.11 23.06 111.76 23.06 109.67 21.16 101.71 21.16 103.41 23.06 100.41 23.06 98.64 21.16 68.17 21.16 69.92 23.06 67.95 23.06 66.2 21.16 55.61 21.16 56.7 23.06 54.85 23.06 53.76 21.16 16.41 21.42 17.57 23.06 15.54 23.06 14.31 21.54 8.16 21.61 9.19 23.06 7.04 23.06 6.08 21.47 0 21.54"/></g></g></svg>
