<svg xmlns="http://www.w3.org/2000/svg" viewBox="0 0 194.38 29.92"><defs><style>.cls-1{fill:#24509d;}.cls-2{fill:#f2a6a3;}.cls-3{fill:#5777b2;}.cls-4{fill:#efddd0;}.cls-5{fill:#e2c7b5;}.cls-6{fill:#234f9e;}.cls-7{fill:#b0d3d7;}.cls-8{fill:#f8f4f1;}</style></defs><title>fea</title><g id="Lag_2" data-name="Lag 2"><g id="klik"><path class="cls-1" d="M17,3.83V9.22h-.63c0-1.88-.38-3.14-1.12-3.79a5.55,5.55,0,0,0-3.63-1H8.78v8.29h1.27q2.28,0,2.88-.57a3.18,3.18,0,0,0,.6-2.28h.63v6.34h-.63a3.17,3.17,0,0,0-.6-2.31,4.87,4.87,0,0,0-2.88-.54H8.78v7.54h1.9v.63H2.44v-.63H4V4.47H2.44V3.83Z"/><path class="cls-1" d="M33.23,15.23H23.66c.22,3.72,1.66,5.58,4.34,5.58a7.21,7.21,0,0,0,2.46-.51,4,4,0,0,0,2-1.42l.44.31a5,5,0,0,1-2.37,1.94,8.14,8.14,0,0,1-3.34.76,12,12,0,0,1-3-.34,8.89,8.89,0,0,1-2.59-1.12,5.17,5.17,0,0,1-2-2.38,9.19,9.19,0,0,1-.72-3.83c0-2.55.71-4.45,2.13-5.68a7.52,7.52,0,0,1,5.14-1.86,6.81,6.81,0,0,1,5,2C32.56,10.06,33.23,12.24,33.23,15.23Zm-9.6-.63H28.8a18.94,18.94,0,0,0-.62-5.1c-.41-1.46-1.07-2.18-2-2.18s-1.56.7-2,2.1a17.73,17.73,0,0,0-.6,4.83Z"/><path class="cls-1" d="M49.7,21.49a7.93,7.93,0,0,1-2.06.24c-1.73,0-2.82-.52-3.26-1.55a6.48,6.48,0,0,1-4.85,1.64A4.77,4.77,0,0,1,36.67,21a2.74,2.74,0,0,1-1.13-2.39,3.76,3.76,0,0,1,1.65-3.27Q38.84,14.2,43,13.71l1.27-.15V12a11,11,0,0,0-.41-3.7,1.61,1.61,0,0,0-1.63-1,2.46,2.46,0,0,0-1.57.33.76.76,0,0,0-.25.76,11.5,11.5,0,0,0,.31,1.13,3.76,3.76,0,0,1,.22,1.1A2.32,2.32,0,0,1,38.57,13a2.33,2.33,0,0,1-1.67-.68,2.26,2.26,0,0,1-.69-1.67A3.33,3.33,0,0,1,37.87,7.9a8.75,8.75,0,0,1,5-1.15q3.31,0,4.72,1.29T49,12.64v5.7a3.47,3.47,0,0,0,.41,2.11c.28.28.78.34,1.52.17v.32A2.79,2.79,0,0,1,49.7,21.49Zm-8.87-1.65a2.45,2.45,0,0,0,1.7.65,2.09,2.09,0,0,0,1.69-.95V14.16l-1.14.16a3.87,3.87,0,0,0-2.36,1.1A3.18,3.18,0,0,0,39.94,18,2.93,2.93,0,0,0,40.83,19.84Z"/><path class="cls-1" d="M58.63,7.63v7.73a14.09,14.09,0,0,0,.22,3.31,6.24,6.24,0,0,0,.48,1,1.74,1.74,0,0,0,1.66.82,3.17,3.17,0,0,0,1.66-.31v.63a5.6,5.6,0,0,1-3.32,1.08,5.86,5.86,0,0,1-4.06-1.27c-.93-.85-1.39-2.36-1.39-4.53V7.63H51.54V7h2.34a4.78,4.78,0,0,0,2.69-1.47,6.78,6.78,0,0,0,1.62-3.38h.44V7h3.68v.63Z"/><path class="cls-1" d="M75.16,21.57V19.89a4.54,4.54,0,0,1-1.88,1.44,6.62,6.62,0,0,1-2.77.59q-5.64,0-5.64-6.12V7.63H63.29V7h6.33v9.5a5.71,5.71,0,0,0,.67,3.2,2.27,2.27,0,0,0,2,.95,3.28,3.28,0,0,0,2.88-1.9V7.63H73.58V7h6.33V20.94H81.5v.63Z"/><path class="cls-1" d="M91.63,21.57H83.72v-.63H85.3V7.63H83.72V7h6.33v3.77a5.79,5.79,0,0,1,1-2.53,3.55,3.55,0,0,1,1.65-1.3,5.27,5.27,0,0,1,1.74-.32,4.38,4.38,0,0,1,1.61.3,2.05,2.05,0,0,1,1.16,1.2,2.37,2.37,0,0,1,0,1.81,2.2,2.2,0,0,1-1.22,1.28,2,2,0,0,1-1.6.1,2.1,2.1,0,0,1-1-.78A3.93,3.93,0,0,1,93,9.6c-.21-.78-.49-1.18-.85-1.18s-.85.7-1.33,2.08a13,13,0,0,0-.73,4.39v6.05h1.58Z"/><path class="cls-1" d="M113,15.23h-9.56c.21,3.72,1.65,5.58,4.34,5.58a7.2,7.2,0,0,0,2.45-.51,4,4,0,0,0,2-1.42l.45.31a5.09,5.09,0,0,1-2.38,1.94,8.14,8.14,0,0,1-3.34.76,11.88,11.88,0,0,1-3-.34,8.83,8.83,0,0,1-2.6-1.12,5.17,5.17,0,0,1-2-2.38,9.19,9.19,0,0,1-.71-3.83c0-2.55.7-4.45,2.12-5.68A7.53,7.53,0,0,1,106,6.68a6.81,6.81,0,0,1,5,2C112.34,10.06,113,12.24,113,15.23Zm-9.59-.63h5.16A18.94,18.94,0,0,0,108,9.5c-.41-1.46-1.07-2.18-2-2.18s-1.56.7-2,2.1a17.73,17.73,0,0,0-.6,4.83Z"/><path class="cls-1" d="M121.31,22a5.83,5.83,0,0,1-4.43-2A8.12,8.12,0,0,1,115,14.19a8.53,8.53,0,0,1,1.83-5.8,5.76,5.76,0,0,1,4.47-2.09,5.62,5.62,0,0,1,2.44.54,3.34,3.34,0,0,1,1.65,1.62V1h-1.59V.35h6.34V20.94h1.58v.63H125.4V20.11C124.83,21.34,123.46,22,121.31,22Zm4.09-7.32V9.41a2.55,2.55,0,0,0-2.24-1.71,2.8,2.8,0,0,0-2.36,1.58,9.9,9.9,0,0,0-1,5,9.54,9.54,0,0,0,1,5,2.38,2.38,0,0,0,2.43,1.36,2.29,2.29,0,0,0,1.21-.5C125.09,19.58,125.4,17.74,125.4,14.63Z"/><path class="cls-1" d="M147.09,20.94h1.59v.63h-7.92v-.63h1.58V7.63h-1.27V7h6Zm.29-18.14a2.69,2.69,0,0,1-.81,2,2.66,2.66,0,0,1-2,.8,2.68,2.68,0,0,1-2-.8,2.67,2.67,0,0,1-.83-2,2.71,2.71,0,0,1,.83-2,2.7,2.7,0,0,1,2-.82,2.67,2.67,0,0,1,2,.82A2.73,2.73,0,0,1,147.38,2.8Z"/><path class="cls-1" d="M167.52,20.94h1.58v.63h-7.91v-.63h1.58V12.07a5.71,5.71,0,0,0-.67-3.2,2.27,2.27,0,0,0-2-.95,3.22,3.22,0,0,0-2.88,1.9V20.94h1.58v.63h-7.92v-.63h1.59V7.63h-1.59V7h6.34V8.65a4.67,4.67,0,0,1,1.88-1.41,6.62,6.62,0,0,1,2.77-.59q5.64,0,5.64,6.11Z"/><path class="cls-1" d="M174.12,22.23a2.93,2.93,0,0,1-2.07-5,2.93,2.93,0,0,1,4.15,4.15A2.82,2.82,0,0,1,174.12,22.23Z"/><path class="cls-1" d="M182.2,22.23a2.93,2.93,0,0,1-2.07-5,2.93,2.93,0,0,1,4.14,4.15A2.81,2.81,0,0,1,182.2,22.23Z"/><path class="cls-1" d="M190.28,22.23a2.93,2.93,0,0,1-2.08-5,2.93,2.93,0,1,1,4.15,4.15A2.81,2.81,0,0,1,190.28,22.23Z"/><polygon class="cls-2" points="0 23.37 0 26.75 0 29.92 194.3 29.92 194.3 23.37 0 23.37"/><rect class="cls-3" x="21.15" y="27.21" width="50.95" height="2.71"/><rect class="cls-4" x="89.61" y="27.42" width="42.38" height="2.5"/><rect class="cls-5" x="61.14" y="23.37" width="65.43" height="3.28"/><rect class="cls-6" x="133.29" y="26.88" width="13.97" height="3.01"/><rect class="cls-7" x="131.79" y="23.37" width="62.59" height="3.28"/><rect class="cls-7" y="23.37" width="30.9" height="3.38"/><rect class="cls-5" y="27.93" width="9.26" height="1.99"/><polyline class="cls-8" points="0 26.75 28.52 26.64 30.7 23.37 33.63 23.37 31.89 26.64 58.23 26.64 60.28 23.37 62.69 23.37 61.14 26.64 124.27 25.77 126.16 23.37 128.39 23.37 127.02 25.06 130.1 25.06 131.3 23.37 134.39 23.37 133.02 25.77 194.3 25.06 194.3 27.42 147.26 27.42 150 29.92 146.91 29.92 144.17 27.42 133.71 27.42 135.94 29.92 131.99 29.92 129.66 27.42 89.61 27.42 91.91 29.92 89.33 29.92 87.03 27.42 73.11 27.42 74.54 29.92 72.1 29.92 70.67 27.42 21.57 27.77 23.1 29.92 20.43 29.92 18.81 27.93 10.72 28.02 12.09 29.92 9.26 29.92 7.99 27.83 0 27.93"/></g></g></svg>
