<svg xmlns="http://www.w3.org/2000/svg" viewBox="0 0 195.28 38.07"><defs><style>.cls-1{font-size:31.67px;fill:#24509d;font-family:RozhaOne-Regular, Rozha One;}.cls-2{fill:#f2a6a3;}.cls-3{fill:#5777b2;}.cls-4{fill:#efddd0;}.cls-5{fill:#e2c7b5;}.cls-6{fill:#234f9e;}.cls-7{fill:#b0d3d7;}.cls-8{fill:#f8f4f1;}</style></defs><title>fin</title><g id="Lag_2" data-name="Lag 2"><g id="klik"><text class="cls-1" transform="translate(2.18 24.71)">Featured in...</text><polygon class="cls-2" points="0 26.5 0 29.88 0 33.06 194.3 33.06 194.3 26.5 0 26.5"/><rect class="cls-3" x="21.15" y="30.34" width="50.95" height="2.71"/><rect class="cls-4" x="89.61" y="30.56" width="42.38" height="2.5"/><rect class="cls-5" x="61.14" y="26.5" width="65.43" height="3.28"/><rect class="cls-6" x="133.29" y="30.02" width="13.97" height="3.01"/><rect class="cls-7" x="131.79" y="26.5" width="62.59" height="3.28"/><rect class="cls-7" y="26.5" width="30.9" height="3.38"/><rect class="cls-5" y="31.06" width="9.26" height="1.99"/><polyline class="cls-8" points="0 29.88 28.52 29.78 30.7 26.5 33.63 26.5 31.89 29.78 58.23 29.78 60.28 26.5 62.69 26.5 61.14 29.78 124.27 28.9 126.16 26.5 128.39 26.5 127.02 28.19 130.1 28.19 131.3 26.5 134.39 26.5 133.02 28.9 194.3 28.19 194.3 30.56 147.26 30.56 150 33.06 146.91 33.06 144.17 30.56 133.71 30.56 135.94 33.06 131.99 33.06 129.66 30.56 89.61 30.56 91.91 33.06 89.33 33.06 87.03 30.56 73.11 30.56 74.54 33.06 72.1 33.06 70.67 30.56 21.57 30.9 23.1 33.06 20.43 33.06 18.81 31.06 10.72 31.16 12.09 33.06 9.26 33.06 7.99 30.97 0 31.06"/></g></g></svg>
