<svg xmlns="http://www.w3.org/2000/svg" viewBox="0 0 105.14 20.05"><defs><style>.cls-1{fill:#f2a6a3;}.cls-2{fill:#5777b2;}.cls-3{fill:#efddd0;}.cls-4{fill:#e2c7b5;}.cls-5{fill:#234f9e;}.cls-6{fill:#b0d3d7;}.cls-7{fill:#f8f4f1;}.cls-8{fill:#24509d;}</style></defs><title>sti</title><g id="Lag_2" data-name="Lag 2"><g id="klik"><polygon class="cls-1" points="0 16.6 0 18.38 0 20.05 102.19 20.05 102.19 16.6 0 16.6"/><rect class="cls-2" x="11.12" y="18.62" width="26.8" height="1.43"/><rect class="cls-3" x="47.13" y="18.73" width="22.29" height="1.31"/><rect class="cls-4" x="32.16" y="16.6" width="34.41" height="1.72"/><rect class="cls-5" x="70.1" y="18.45" width="7.35" height="1.58"/><rect class="cls-6" x="69.32" y="16.6" width="32.92" height="1.72"/><rect class="cls-6" y="16.6" width="16.25" height="1.78"/><rect class="cls-4" y="19" width="4.87" height="1.05"/><polyline class="cls-7" points="0 18.38 15 18.32 16.15 16.6 17.69 16.6 16.77 18.32 30.62 18.32 31.71 16.6 32.97 16.6 32.16 18.32 65.36 17.86 66.35 16.6 67.53 16.6 66.8 17.49 68.43 17.49 69.06 16.6 70.68 16.6 69.96 17.86 102.19 17.49 102.19 18.73 77.45 18.73 78.89 20.05 77.27 20.05 75.83 18.73 70.32 18.73 71.5 20.05 69.42 20.05 68.2 18.73 47.13 18.73 48.34 20.05 46.98 20.05 45.77 18.73 38.45 18.73 39.2 20.05 37.92 20.05 37.17 18.73 11.35 18.91 12.15 20.05 10.74 20.05 9.89 19 5.64 19.05 6.36 20.05 4.87 20.05 4.2 18.95 0 19"/><path class="cls-8" d="M2,14.66H1.56v-5H2a4.61,4.61,0,0,0,1.45,3.44A4.87,4.87,0,0,0,7,14.5,1.91,1.91,0,0,0,8.37,14a1.8,1.8,0,0,0,.53-1.35c0-.63-.41-1.17-1.23-1.61-.45-.23-1.21-.59-2.3-1.09A12.21,12.21,0,0,1,3.06,8.69,2.9,2.9,0,0,1,1.89,6,3.8,3.8,0,0,1,3.17,3.32,3.86,3.86,0,0,1,5.7,2.39a8,8,0,0,1,2.54.37,7.85,7.85,0,0,0,1.28.38c.29,0,.43-.25.43-.75h.43V6.33H10A3.17,3.17,0,0,0,8.81,3.8a4.36,4.36,0,0,0-2.93-1,1.68,1.68,0,0,0-1.25.46,1.44,1.44,0,0,0-.45,1,2,2,0,0,0,.15.87,1.43,1.43,0,0,0,.53.54,6.86,6.86,0,0,0,.66.4,9.48,9.48,0,0,0,.89.41c.41.17.69.29.85.37l1.4.63.62.31a4.31,4.31,0,0,1,.62.39c.13.12.31.26.52.43a1.79,1.79,0,0,1,.48.53c.1.18.2.38.3.61a3.24,3.24,0,0,1,.21,1.62,3.66,3.66,0,0,1-1.3,2.65,4.69,4.69,0,0,1-3,.92,7.44,7.44,0,0,1-3.42-.88,2.11,2.11,0,0,0-.87-.31C2.25,13.79,2,14.08,2,14.66Z"/><path class="cls-8" d="M17.1,5.19v5.25a9.36,9.36,0,0,0,.15,2.25,3.49,3.49,0,0,0,.32.67,1.17,1.17,0,0,0,1.13.56,2.2,2.2,0,0,0,1.13-.21v.43a3.81,3.81,0,0,1-2.26.73A4,4,0,0,1,14.81,14a4.05,4.05,0,0,1-.94-3.08V5.19h-1.6V4.76h1.6a3.23,3.23,0,0,0,1.83-1,4.51,4.51,0,0,0,1.09-2.29h.31v3.3h2.49v.43Z"/><path class="cls-8" d="M25.21,14.22h1.07v.44H20.9v-.44H22v-9h-.86V4.76h4.09ZM25.4,1.9a1.81,1.81,0,0,1-.55,1.34,1.83,1.83,0,0,1-1.33.55,1.91,1.91,0,0,1-1.35-.55,1.82,1.82,0,0,1-.56-1.34A1.84,1.84,0,0,1,22.17.56,1.87,1.87,0,0,1,23.52,0a1.8,1.8,0,0,1,1.33.56A1.83,1.83,0,0,1,25.4,1.9Z"/><path class="cls-8" d="M31.66,5.75A2.78,2.78,0,0,1,34.29,4.5a4.11,4.11,0,0,1,3.16,1.38,5.49,5.49,0,0,1,1.27,3.89,5.73,5.73,0,0,1-1.25,3.94,3.87,3.87,0,0,1-3,1.42,3.77,3.77,0,0,1-1.66-.37,2.29,2.29,0,0,1-1.12-1.09v5.07h1.08v.43h-4.3v-14H27.36V4.76h4.3Zm0,3.72V13a1.75,1.75,0,0,0,1.52,1.16,1.89,1.89,0,0,0,1.6-1.07,6.76,6.76,0,0,0,.67-3.46,7.67,7.67,0,0,0-.51-3.33,1.69,1.69,0,0,0-1.58-1A1.31,1.31,0,0,0,32,6.22,10.54,10.54,0,0,0,31.66,9.47Z"/><path class="cls-8" d="M49.74,10.35h-6.5q.23,3.8,2.95,3.79a5,5,0,0,0,1.67-.35,2.76,2.76,0,0,0,1.37-1l.3.21a3.47,3.47,0,0,1-1.62,1.31,5.36,5.36,0,0,1-2.27.52,8.4,8.4,0,0,1-2-.23,6.19,6.19,0,0,1-1.77-.76,3.59,3.59,0,0,1-1.34-1.61A6.4,6.4,0,0,1,40,9.66,4.84,4.84,0,0,1,41.46,5.8,5.11,5.11,0,0,1,45,4.54a4.65,4.65,0,0,1,3.43,1.38C49.29,6.84,49.74,8.31,49.74,10.35Zm-6.52-.43h3.51a12.75,12.75,0,0,0-.42-3.46C46,5.47,45.58,5,45,5s-1.06.48-1.33,1.43a12.11,12.11,0,0,0-.41,3.28Z"/><path class="cls-8" d="M62.61,14.22h1.08v.44H58.31v-.44h1.07v-6A3.92,3.92,0,0,0,58.93,6a1.52,1.52,0,0,0-1.35-.65,2.19,2.19,0,0,0-2,1.29v7.55h1.07v.44H51.31v-.44h1.08v-9H51.31V4.76h4.31V5.88a3.06,3.06,0,0,1,1.28-1,4.41,4.41,0,0,1,1.88-.4q3.82,0,3.83,4.15Z"/><path class="cls-8" d="M69.26,14.91a4,4,0,0,1-3-1.37A5.53,5.53,0,0,1,65,9.64,5.73,5.73,0,0,1,66.23,5.7a3.91,3.91,0,0,1,3-1.42,3.77,3.77,0,0,1,1.66.37A2.26,2.26,0,0,1,72,5.75V.67H71V.24h4.31v14h1.07v.44H72v-1C71.65,14.5,70.72,14.91,69.26,14.91Zm2.78-5V6.39a1.75,1.75,0,0,0-1.52-1.16,1.9,1.9,0,0,0-1.6,1.08,6.6,6.6,0,0,0-.67,3.41,6.52,6.52,0,0,0,.69,3.41,1.64,1.64,0,0,0,1.66.92,1.48,1.48,0,0,0,.81-.34C71.83,13.31,72,12.05,72,9.94Z"/><path class="cls-8" d="M82.15,14.22h1.08v.44H77.85v-.44h1.07v-9h-.86V4.76h4.09Zm.2-12.32a1.9,1.9,0,0,1-3.23,1.34,1.78,1.78,0,0,1-.56-1.34A1.8,1.8,0,0,1,79.12.56a1.88,1.88,0,0,1,2.68,0A1.87,1.87,0,0,1,82.35,1.9Z"/><path class="cls-8" d="M94.25,10.35h-6.5q.21,3.8,3,3.79a4.9,4.9,0,0,0,1.66-.35,2.71,2.71,0,0,0,1.37-1L94,13a3.39,3.39,0,0,1-1.61,1.31,5.39,5.39,0,0,1-2.27.52,8.48,8.48,0,0,1-2-.23,6,6,0,0,1-1.76-.76A3.61,3.61,0,0,1,85,12.27a6.4,6.4,0,0,1-.48-2.61A4.87,4.87,0,0,1,86,5.8a5.14,5.14,0,0,1,3.5-1.26,4.61,4.61,0,0,1,3.42,1.38A6.1,6.1,0,0,1,94.25,10.35Zm-6.52-.43h3.5a12.75,12.75,0,0,0-.42-3.46c-.28-1-.72-1.49-1.34-1.49s-1.06.48-1.34,1.43a12.13,12.13,0,0,0-.4,3.28Z"/><path class="cls-8" d="M101.2,14.66H95.82v-.44h1.07v-9H95.82V4.76h4.3V7.32a4,4,0,0,1,.7-1.73,2.53,2.53,0,0,1,1.12-.88,3.63,3.63,0,0,1,1.18-.21,3.15,3.15,0,0,1,1.1.2,1.45,1.45,0,0,1,.79.82,1.59,1.59,0,0,1,0,1.23,1.51,1.51,0,0,1-.83.87,1.39,1.39,0,0,1-1.09.06,1.47,1.47,0,0,1-.71-.52,2.79,2.79,0,0,1-.3-.64c-.14-.53-.34-.8-.58-.8s-.57.47-.9,1.41a9,9,0,0,0-.5,3v4.11h1.08Z"/></g></g></svg>
