<svg xmlns="http://www.w3.org/2000/svg" viewBox="0 0 120.59 33.63"><defs><style>.cls-1{fill:#f2a6a3;}.cls-2{fill:#5777b2;}.cls-3{fill:#efddd0;}.cls-4{fill:#e2c7b5;}.cls-5{fill:#234f9e;}.cls-6{fill:#b0d3d7;}.cls-7{fill:#f8f4f1;}.cls-8{font-size:21.52px;fill:#24509d;font-family:RozhaOne-Regular, Rozha One;}.cls-9{fill:#c68151;opacity:0;}</style></defs><title>stip</title><g id="Lag_2" data-name="Lag 2"><g id="klik"><polygon class="cls-1" points="2.77 23.55 2.77 25.32 2.77 26.99 104.97 26.99 104.97 23.55 2.77 23.55"/><rect class="cls-2" x="13.9" y="25.57" width="26.8" height="1.43"/><rect class="cls-3" x="49.91" y="25.68" width="22.29" height="1.31"/><rect class="cls-4" x="34.93" y="23.55" width="34.41" height="1.72"/><rect class="cls-5" x="72.88" y="25.4" width="7.35" height="1.58"/><rect class="cls-6" x="72.09" y="23.55" width="32.92" height="1.72"/><rect class="cls-6" x="2.77" y="23.55" width="16.25" height="1.78"/><rect class="cls-4" x="2.77" y="25.95" width="4.87" height="1.05"/><polyline class="cls-7" points="2.77 25.32 17.78 25.27 18.92 23.55 20.46 23.55 19.55 25.27 33.4 25.27 34.48 23.55 35.74 23.55 34.93 25.27 68.13 24.81 69.13 23.55 70.3 23.55 69.58 24.44 71.2 24.44 71.83 23.55 73.46 23.55 72.74 24.81 104.97 24.44 104.97 25.68 80.22 25.68 81.67 26.99 80.04 26.99 78.6 25.68 73.1 25.68 74.27 26.99 72.19 26.99 70.97 25.68 49.91 25.68 51.12 26.99 49.76 26.99 48.55 25.68 41.22 25.68 41.98 26.99 40.7 26.99 39.94 25.68 14.12 25.86 14.93 26.99 13.52 26.99 12.67 25.95 8.41 26 9.13 26.99 7.64 26.99 6.98 25.89 2.77 25.95"/><text class="cls-8" transform="translate(3.04 21.6)">Stipendier</text><rect id="stip_knap" class="cls-9" width="120.59" height="33.63"/></g></g></svg>
