<svg xmlns="http://www.w3.org/2000/svg" viewBox="0 0 105.15 17.66"><defs><style>.cls-1{fill:#24509d;}.cls-2{fill:#f2a6a3;}.cls-3{fill:#5777b2;}.cls-4{fill:#efddd0;}.cls-5{fill:#e2c7b5;}.cls-6{fill:#234f9e;}.cls-7{fill:#b0d3d7;}.cls-8{fill:#f8f4f1;}</style></defs><title>udd</title><g id="Lag_2" data-name="Lag 2"><g id="klik"><path class="cls-1" d="M11.35,8.12c0,3.3-1.39,4.94-4.16,4.94a5.12,5.12,0,0,1-3.6-1.18,4.58,4.58,0,0,1-1.3-3.57V2.48H1.34V2.1h5v.38h-1v6q0,4,2.67,4a2.56,2.56,0,0,0,2-1.08,4.47,4.47,0,0,0,.88-2.93v-6H9.37V2.1H12.3v.38h-1Z"/><path class="cls-1" d="M16.86,13a3.52,3.52,0,0,1-2.67-1.21,4.93,4.93,0,0,1-1.12-3.46,5.11,5.11,0,0,1,1.1-3.49,3.45,3.45,0,0,1,2.69-1.26,3.36,3.36,0,0,1,1.47.33,2,2,0,0,1,1,1V.38h-.95V0h3.81V12.39h.95v.39H19.32V11.9C19,12.64,18.16,13,16.86,13Zm2.46-4.4V5.45a1.54,1.54,0,0,0-1.34-1,1.67,1.67,0,0,0-1.42,1,5.82,5.82,0,0,0-.6,3,5.81,5.81,0,0,0,.61,3,1.44,1.44,0,0,0,1.47.82,1.4,1.4,0,0,0,.73-.3C19.14,11.58,19.32,10.47,19.32,8.6Z"/><path class="cls-1" d="M28.07,13a3.52,3.52,0,0,1-2.67-1.21,4.93,4.93,0,0,1-1.12-3.46,5.16,5.16,0,0,1,1.1-3.49,3.46,3.46,0,0,1,2.69-1.26,3.36,3.36,0,0,1,1.47.33,2,2,0,0,1,1,1V.38h-1V0h3.81V12.39h1v.39H30.53V11.9C30.19,12.64,29.37,13,28.07,13Zm2.46-4.4V5.45a1.54,1.54,0,0,0-1.34-1,1.68,1.68,0,0,0-1.42,1,5.84,5.84,0,0,0-.59,3,5.71,5.71,0,0,0,.61,3,1.43,1.43,0,0,0,1.47.82,1.4,1.4,0,0,0,.72-.3C30.35,11.58,30.53,10.47,30.53,8.6Z"/><path class="cls-1" d="M44.21,12.73a5.1,5.1,0,0,1-1.24.14c-1,0-1.7-.31-2-.93a3.88,3.88,0,0,1-2.92,1,2.85,2.85,0,0,1-1.72-.49A1.65,1.65,0,0,1,35.68,11a2.26,2.26,0,0,1,1-2,8,8,0,0,1,3.47-1l.77-.1V7a6.64,6.64,0,0,0-.25-2.23,1,1,0,0,0-1-.58,1.52,1.52,0,0,0-1,.2.47.47,0,0,0-.15.46c0,.17.1.4.19.68a2.27,2.27,0,0,1,.13.67,1.4,1.4,0,0,1-1.4,1.41,1.39,1.39,0,0,1-1-.41,1.36,1.36,0,0,1-.42-1,2,2,0,0,1,1-1.67,5.23,5.23,0,0,1,3-.7,4.16,4.16,0,0,1,2.84.78,3.71,3.71,0,0,1,.85,2.77v3.43A2,2,0,0,0,44,12.1c.16.17.47.21.91.1v.19A1.72,1.72,0,0,1,44.21,12.73Zm-5.34-1a1.48,1.48,0,0,0,1,.39,1.29,1.29,0,0,0,1-.57V8.31l-.69.1a2.37,2.37,0,0,0-1.42.67,1.89,1.89,0,0,0-.47,1.54A1.75,1.75,0,0,0,38.87,11.74Z"/><path class="cls-1" d="M56.09,12.39H57v.39H52.27v-.39h1V7.06a3.54,3.54,0,0,0-.4-1.93,1.38,1.38,0,0,0-1.21-.57A1.94,1.94,0,0,0,49.89,5.7v6.69h1v.39H46.07v-.39h1v-8h-1V4h3.82V5A2.78,2.78,0,0,1,51,4.15a3.92,3.92,0,0,1,1.67-.36c2.26,0,3.4,1.23,3.4,3.68Z"/><path class="cls-1" d="M68.39,12.39h1v.39H64.57v-.39h1V7.06a3.54,3.54,0,0,0-.4-1.93,1.38,1.38,0,0,0-1.21-.57A1.94,1.94,0,0,0,62.19,5.7v6.69h1v.39H58.37v-.39h1v-8h-1V4h3.82V5a2.78,2.78,0,0,1,1.13-.85A3.92,3.92,0,0,1,65,3.79c2.26,0,3.4,1.23,3.4,3.68Z"/><path class="cls-1" d="M79.1,9H73.34c.13,2.24,1,3.36,2.62,3.36A4.17,4.17,0,0,0,77.43,12a2.48,2.48,0,0,0,1.22-.85l.26.19a3.05,3.05,0,0,1-1.43,1.16,4.9,4.9,0,0,1-2,.46,7.56,7.56,0,0,1-1.8-.2,5.54,5.54,0,0,1-1.57-.68,3.21,3.21,0,0,1-1.19-1.43,5.74,5.74,0,0,1-.43-2.31,4.3,4.3,0,0,1,1.28-3.42,4.58,4.58,0,0,1,3.1-1.12,4.1,4.1,0,0,1,3,1.22A5.42,5.42,0,0,1,79.1,9Zm-5.77-.38h3.1a11.28,11.28,0,0,0-.37-3.07c-.25-.88-.64-1.31-1.19-1.31s-.94.42-1.18,1.26a10.73,10.73,0,0,0-.36,2.91Z"/><path class="cls-1" d="M84.31,12.39h1v.39H80.5v-.39h1V.38h-1V0h3.81Z"/><path class="cls-1" d="M90.89,12.62q2,0,2-1.08a1.14,1.14,0,0,0-.69-1,6.45,6.45,0,0,0-1.65-.64q-1-.26-1.92-.57a3.53,3.53,0,0,1-1.56-1,2.26,2.26,0,0,1-.51-1.84,2.57,2.57,0,0,1,1.17-1.89,4.43,4.43,0,0,1,2.62-.75,5.42,5.42,0,0,1,2.5.5A1.77,1.77,0,0,1,93.9,5.64a1.5,1.5,0,0,1-.16,1,.88.88,0,0,1-.78.46,1.29,1.29,0,0,1-.9-.29.84.84,0,0,1-.33-.71,1.1,1.1,0,0,1,.3-.71.9.9,0,0,0,.29-.51c0-.21-.21-.38-.62-.48a5.58,5.58,0,0,0-1.43-.16,2.29,2.29,0,0,0-1.33.36,1.07,1.07,0,0,0-.51.89,1.08,1.08,0,0,0,.64.92A6,6,0,0,0,90.62,7c.61.16,1.22.34,1.82.53a3.74,3.74,0,0,1,1.55,1,2.26,2.26,0,0,1,.64,1.64,2.62,2.62,0,0,1-.94,2.1,4.26,4.26,0,0,1-2.82.79,7,7,0,0,1-3.06-.57A2,2,0,0,1,86.52,11a1.48,1.48,0,0,1,.17-1,.9.9,0,0,1,.78-.46,1.26,1.26,0,0,1,.89.29.81.81,0,0,1,.33.7,1.11,1.11,0,0,1-.3.72.9.9,0,0,0-.29.51c0,.25.3.46.89.62A7.67,7.67,0,0,0,90.89,12.62Z"/><path class="cls-1" d="M104.08,9H98.33q.18,3.36,2.61,3.36a4.26,4.26,0,0,0,1.48-.31,2.49,2.49,0,0,0,1.21-.85l.26.19a3.05,3.05,0,0,1-1.43,1.16,4.9,4.9,0,0,1-2,.46,7.56,7.56,0,0,1-1.8-.2,5.49,5.49,0,0,1-1.56-.68,3.17,3.17,0,0,1-1.2-1.43,5.74,5.74,0,0,1-.43-2.31,4.3,4.3,0,0,1,1.28-3.42,4.58,4.58,0,0,1,3.1-1.12,4.08,4.08,0,0,1,3,1.22A5.42,5.42,0,0,1,104.08,9Zm-5.77-.38h3.1A11.28,11.28,0,0,0,101,5.51c-.25-.88-.64-1.31-1.19-1.31s-.94.42-1.18,1.26a10.73,10.73,0,0,0-.36,2.91Z"/><polygon class="cls-2" points="0 14.14 0 15.96 0 17.66 105.11 17.66 105.11 14.14 0 14.14"/><rect class="cls-3" x="11.44" y="16.2" width="27.56" height="1.46"/><rect class="cls-4" x="48.48" y="16.32" width="22.92" height="1.34"/><rect class="cls-5" x="33.08" y="14.14" width="35.4" height="1.76"/><rect class="cls-6" x="72.1" y="16.03" width="7.56" height="1.62"/><rect class="cls-7" x="71.29" y="14.14" width="33.86" height="1.76"/><rect class="cls-7" y="14.14" width="16.72" height="1.81"/><rect class="cls-5" y="16.59" width="5.01" height="1.07"/><polyline class="cls-8" points="0 15.96 15.43 15.9 16.61 14.14 18.19 14.14 17.25 15.9 31.5 15.9 32.61 14.14 33.91 14.14 33.08 15.9 67.22 15.43 68.25 14.14 69.45 14.14 68.71 15.05 70.38 15.05 71.03 14.14 72.7 14.14 71.96 15.43 105.11 15.05 105.11 16.32 79.66 16.32 81.14 17.66 79.47 17.66 77.99 16.32 72.33 16.32 73.53 17.66 71.4 17.66 70.14 16.32 48.48 16.32 49.72 17.66 48.32 17.66 47.08 16.32 39.55 16.32 40.32 17.66 39 17.66 38.23 16.32 11.67 16.5 12.5 17.66 11.05 17.66 10.18 16.59 5.8 16.64 6.54 17.66 5.01 17.66 4.32 16.54 0 16.59"/></g></g></svg>
