<svg xmlns="http://www.w3.org/2000/svg" viewBox="0 0 95.97 22.92"><defs><style>.cls-1{font-size:19.07px;fill:#24509d;font-family:RozhaOne-Regular, Rozha One;}.cls-2{fill:#f2a6a3;}.cls-3{fill:#5777b2;}.cls-4{fill:#efddd0;}.cls-5{fill:#e2c7b5;}.cls-6{fill:#234f9e;}.cls-7{fill:#b0d3d7;}.cls-8{fill:#f8f4f1;}</style></defs><title>udd</title><g id="Lag_2" data-name="Lag 2"><g id="klik"><text class="cls-1" transform="translate(1.96 14.87)">Uddanelse</text><polygon class="cls-2" points="0 16.63 0 18.3 0 19.87 95.93 19.87 95.93 16.63 0 16.63"/><rect class="cls-3" x="10.44" y="18.53" width="25.16" height="1.34"/><rect class="cls-4" x="44.24" y="18.63" width="20.92" height="1.23"/><rect class="cls-5" x="30.19" y="16.63" width="32.31" height="1.62"/><rect class="cls-6" x="65.81" y="18.37" width="6.9" height="1.49"/><rect class="cls-7" x="65.07" y="16.63" width="30.9" height="1.62"/><rect class="cls-7" y="16.63" width="15.26" height="1.67"/><rect class="cls-5" y="18.88" width="4.57" height="0.98"/><polyline class="cls-8" points="0 18.3 14.08 18.25 15.16 16.63 16.61 16.63 15.74 18.25 28.75 18.25 29.76 16.63 30.95 16.63 30.19 18.25 61.35 17.82 62.29 16.63 63.39 16.63 62.71 17.47 64.23 17.47 64.83 16.63 66.35 16.63 65.67 17.82 95.93 17.47 95.93 18.63 72.7 18.63 74.06 19.87 72.53 19.87 71.18 18.63 66.01 18.63 67.11 19.87 65.17 19.87 64.02 18.63 44.24 18.63 45.38 19.87 44.1 19.87 42.97 18.63 36.09 18.63 36.8 19.87 35.6 19.87 34.89 18.63 10.65 18.8 11.41 19.87 10.08 19.87 9.29 18.88 5.29 18.93 5.97 19.87 4.57 19.87 3.95 18.84 0 18.88"/></g></g></svg>
