<svg xmlns="http://www.w3.org/2000/svg" viewBox="0 0 219.29 47.88"><defs><style>.cls-1{fill:#f2a6a3;}.cls-2{fill:#5777b2;}.cls-3{fill:#efddd0;}.cls-4{fill:#e2c7b5;}.cls-5,.cls-8{fill:#234f9e;}.cls-6{fill:#b0d3d7;}.cls-7{fill:#f8f4f1;}.cls-8{font-size:39.84px;font-family:RozhaOne-Regular, Rozha One;}</style></defs><title>uds</title><g id="Lag_2" data-name="Lag 2"><g id="klik"><polygon class="cls-1" points="2.19 35.18 2.19 38.95 2.2 42.49 219.12 42.49 219.12 35.18 2.19 35.18"/><rect class="cls-2" x="25.81" y="39.47" width="56.88" height="3.03"/><rect class="cls-3" x="102.24" y="39.71" width="47.31" height="2.79"/><rect class="cls-4" x="70.46" y="35.18" width="73.05" height="3.66"/><rect class="cls-5" x="151" y="39.1" width="15.6" height="3.36"/><rect class="cls-6" x="149.33" y="35.18" width="69.87" height="3.66"/><rect class="cls-6" x="2.19" y="35.18" width="34.5" height="3.77"/><rect class="cls-4" x="2.2" y="40.27" width="10.34" height="2.23"/><polyline class="cls-7" points="2.19 38.95 34.04 38.83 36.47 35.18 39.74 35.18 37.8 38.84 67.2 38.84 69.5 35.18 72.18 35.18 70.46 38.84 140.94 37.85 143.04 35.18 145.53 35.18 144 37.06 147.45 37.06 148.79 35.18 152.23 35.18 150.7 37.85 219.12 37.06 219.12 39.71 166.6 39.71 169.66 42.49 166.22 42.49 163.15 39.71 151.47 39.71 153.96 42.49 149.55 42.49 146.96 39.71 102.24 39.71 104.81 42.49 101.92 42.49 99.36 39.71 83.81 39.71 85.42 42.49 82.69 42.49 81.09 39.71 26.28 40.09 27.99 42.49 25 42.49 23.2 40.27 14.16 40.38 15.69 42.49 12.53 42.49 11.12 40.16 2.19 40.27"/><text class="cls-8" transform="translate(0 31.07)">Udstillinger</text></g></g></svg>
