<svg xmlns="http://www.w3.org/2000/svg" viewBox="0 0 218.41 38.55"><defs><style>.cls-1{fill:#f2a6a3;}.cls-2{fill:#5777b2;}.cls-3{fill:#efddd0;}.cls-4{fill:#e2c7b5;}.cls-5{fill:#234f9e;}.cls-6{fill:#b0d3d7;}.cls-7{fill:#f8f4f1;}</style></defs><title>uds</title><g id="Lag_2" data-name="Lag 2"><g id="klik"><polygon class="cls-1" points="1.4 31.23 1.4 35.01 1.4 38.55 218.33 38.55 218.32 31.23 1.4 31.23"/><rect class="cls-2" x="25.01" y="35.52" width="56.88" height="3.03"/><rect class="cls-3" x="101.45" y="35.76" width="47.31" height="2.79"/><rect class="cls-4" x="69.66" y="31.24" width="73.05" height="3.66"/><rect class="cls-5" x="150.21" y="35.16" width="15.6" height="3.36"/><rect class="cls-6" x="148.54" y="31.24" width="69.87" height="3.66"/><rect class="cls-6" x="1.4" y="31.24" width="34.5" height="3.77"/><rect class="cls-4" x="1.4" y="36.33" width="10.34" height="2.23"/><polyline class="cls-7" points="1.4 35.01 33.24 34.89 35.68 31.23 38.95 31.23 37 34.89 66.4 34.89 68.7 31.23 71.38 31.23 69.66 34.89 140.14 33.91 142.25 31.23 144.73 31.23 143.2 33.12 146.65 33.12 147.99 31.23 151.44 31.23 149.91 33.91 218.32 33.12 218.33 35.76 165.8 35.76 168.87 38.55 165.42 38.55 162.35 35.76 150.67 35.76 153.16 38.55 148.76 38.55 146.16 35.76 101.45 35.76 104.01 38.55 101.13 38.55 98.56 35.76 83.02 35.76 84.62 38.55 81.89 38.55 80.29 35.76 25.48 36.14 27.19 38.55 24.2 38.55 22.4 36.33 13.37 36.43 14.89 38.55 11.73 38.55 10.32 36.22 1.4 36.33"/><path class="cls-5" d="M20.91,17.41q0,10.32-8.68,10.32A10.81,10.81,0,0,1,4.7,25.26Q2,22.78,2,17.81V5.62H0v-.8H10.36v.8h-2V18.24q0,8.34,5.57,8.33a5.33,5.33,0,0,0,4.13-2.25,9.36,9.36,0,0,0,1.85-6.11V5.62H16.77v-.8h6.14v.8h-2Z"/><path class="cls-5" d="M32.43,27.61a7.34,7.34,0,0,1-5.58-2.55c-1.57-1.7-2.35-4.11-2.35-7.21a10.66,10.66,0,0,1,2.31-7.29,7.18,7.18,0,0,1,5.62-2.63,7.09,7.09,0,0,1,3.06.67,4.15,4.15,0,0,1,2.07,2V1.23h-2V.44h8V26.33h2v.8h-8V25.3C36.85,26.84,35.13,27.61,32.43,27.61Zm5.13-9.21V11.83c-.71-1.43-1.65-2.15-2.8-2.15a3.51,3.51,0,0,0-3,2C31,13,30.55,15.1,30.55,18s.43,5,1.28,6.31S33.7,26.2,34.9,26a2.88,2.88,0,0,0,1.51-.63C37.18,24.63,37.56,22.31,37.56,18.4Z"/><path class="cls-5" d="M57.28,26.81q4.15,0,4.15-2.27A2.39,2.39,0,0,0,60,22.45a13.88,13.88,0,0,0-3.46-1.34c-1.36-.34-2.69-.74-4-1.19a7.49,7.49,0,0,1-3.26-2.15A4.85,4.85,0,0,1,48.2,13.9,5.35,5.35,0,0,1,50.65,10a9.21,9.21,0,0,1,5.46-1.55,11.41,11.41,0,0,1,5.24,1,3.74,3.74,0,0,1,2.23,2.79,3.15,3.15,0,0,1-.34,2,1.81,1.81,0,0,1-1.63,1,2.68,2.68,0,0,1-1.88-.6A1.77,1.77,0,0,1,59,13.11a2.35,2.35,0,0,1,.63-1.5,1.85,1.85,0,0,0,.6-1q0-.68-1.29-1a12.18,12.18,0,0,0-3-.34,4.75,4.75,0,0,0-2.77.76,2.22,2.22,0,0,0-1.08,1.87,2.26,2.26,0,0,0,1.34,1.91A12.37,12.37,0,0,0,56.73,15c1.27.33,2.54.7,3.8,1.11a8,8,0,0,1,3.23,2,4.7,4.7,0,0,1,1.33,3.43,5.48,5.48,0,0,1-2,4.4c-1.3,1.1-3.27,1.66-5.9,1.66a14.56,14.56,0,0,1-6.39-1.2c-1.63-.8-2.53-1.82-2.69-3.07a3,3,0,0,1,.36-2,1.8,1.8,0,0,1,1.63-1A2.61,2.61,0,0,1,52,21a1.78,1.78,0,0,1,.69,1.48A2.31,2.31,0,0,1,52.06,24,1.87,1.87,0,0,0,51.47,25c0,.53.61,1,1.85,1.29A15.29,15.29,0,0,0,57.28,26.81Z"/><path class="cls-5" d="M74.57,9.6v9.72a16.87,16.87,0,0,0,.28,4.16,8.28,8.28,0,0,0,.6,1.26,2.2,2.2,0,0,0,2.09,1,4,4,0,0,0,2.09-.39v.79a7,7,0,0,1-4.18,1.36,7.3,7.3,0,0,1-5.1-1.6q-1.75-1.59-1.75-5.69V9.6H65.65V8.8H68.6A6,6,0,0,0,72,7a8.43,8.43,0,0,0,2-4.24h.56V8.8h4.62v.8Z"/><path class="cls-5" d="M89.59,26.33h2v.8h-10v-.8h2V9.6H82V8.8h7.57ZM90,3.53A3.47,3.47,0,0,1,86.46,7,3.45,3.45,0,0,1,84,6a3.33,3.33,0,0,1-1-2.47A3.39,3.39,0,0,1,84,1a3.4,3.4,0,0,1,2.49-1,3.34,3.34,0,0,1,2.47,1A3.42,3.42,0,0,1,90,3.53Z"/><path class="cls-5" d="M102.34,26.33h2v.8h-10v-.8h2V1.23h-2V.44h8Z"/><path class="cls-5" d="M115.08,26.33h2v.8h-10v-.8h2V1.23h-2V.44h8Z"/><path class="cls-5" d="M127.83,26.33h2v.8h-10v-.8h2V9.6h-1.6V8.8h7.57Zm.36-22.8a3.36,3.36,0,0,1-1,2.47,3.37,3.37,0,0,1-2.47,1,3.45,3.45,0,0,1-2.49-1,3.33,3.33,0,0,1-1-2.47,3.39,3.39,0,0,1,1-2.49,3.4,3.4,0,0,1,2.49-1,3.32,3.32,0,0,1,2.47,1A3.42,3.42,0,0,1,128.19,3.53Z"/><path class="cls-5" d="M153.52,26.33h2v.8h-10v-.8h2V15.18a7.26,7.26,0,0,0-.84-4A2.87,2.87,0,0,0,144.2,10a4.07,4.07,0,0,0-3.62,2.39v14h2v.8h-10v-.8h2V9.6h-2V8.8h8v2.08A5.73,5.73,0,0,1,143,9.1a8.29,8.29,0,0,1,3.48-.73q7.09,0,7.09,7.68Z"/><path class="cls-5" d="M163.16,23.42c0,.75.48,1.17,1.44,1.28h6.85q3.54,0,4.94,1.51a4.14,4.14,0,0,1,1,3.75,7.06,7.06,0,0,1-2.73,4.1,9.86,9.86,0,0,1-6.38,1.87q-7.44,0-9.56-2.19a2.58,2.58,0,0,1-.68-2.05,3,3,0,0,1,.88-1.91,4.2,4.2,0,0,1,1.71-1,3.36,3.36,0,0,1-1.27-2.67,4.48,4.48,0,0,1,1-2.85,8.23,8.23,0,0,1,2.25-2c-3.06-1.11-4.58-3.12-4.58-6a5.53,5.53,0,0,1,3-5,12.87,12.87,0,0,1,6.72-1.77,12,12,0,0,1,3.58.55,4.8,4.8,0,0,1-.92-2.95,3.79,3.79,0,0,1,1.18-2.84,4.07,4.07,0,0,1,3-1.14,3.52,3.52,0,0,1,2.67.94A3,3,0,0,1,178,5.1a2.87,2.87,0,0,1-.69,2,2.34,2.34,0,0,1-1.84.8,2.3,2.3,0,0,1-1.81-.76A2.3,2.3,0,0,1,173,5.56a2.93,2.93,0,0,1,.3-1.36,3,3,0,0,0,.3-.66c-.08-.42-.34-.54-.8-.35a2.48,2.48,0,0,0-1.17,1.13,3.87,3.87,0,0,0-.5,2,4.05,4.05,0,0,0,2,3.51,5.85,5.85,0,0,1,3.43,5.3,5.63,5.63,0,0,1-2.83,5.12A12.62,12.62,0,0,1,167,22a12.25,12.25,0,0,1-3.31-.4A3.69,3.69,0,0,0,163.16,23.42Zm8.05,6.46h-6.69a7,7,0,0,1-3.23-.68,4.1,4.1,0,0,0,1.46,4.4,8.9,8.9,0,0,0,5.51,1.53,9.34,9.34,0,0,0,5.82-1.75,2.61,2.61,0,0,0,1.19-1.59c.08-.53-.22-1-.91-1.36A6.92,6.92,0,0,0,171.21,29.88Zm-.68-14.76c0-2.27-.26-3.82-.79-4.64a2.62,2.62,0,0,0-2.37-1.24,2.43,2.43,0,0,0-2.29,1.26,10.14,10.14,0,0,0-.72,4.6,10.3,10.3,0,0,0,.76,4.7,2.45,2.45,0,0,0,2.29,1.35,2.57,2.57,0,0,0,2.33-1.31A9.89,9.89,0,0,0,170.53,15.12Z"/><path class="cls-5" d="M197.94,19.16h-12q.39,7,5.46,7a8.93,8.93,0,0,0,3.08-.64A5,5,0,0,0,197,23.74l.56.4a6.39,6.39,0,0,1-3,2.43,10,10,0,0,1-4.2,1,15.44,15.44,0,0,1-3.76-.42,11.17,11.17,0,0,1-3.27-1.42,6.61,6.61,0,0,1-2.49-3,11.68,11.68,0,0,1-.9-4.82q0-4.83,2.67-7.15a9.48,9.48,0,0,1,6.48-2.33A8.56,8.56,0,0,1,195.41,11C197.1,12.65,197.94,15.39,197.94,19.16Zm-12.07-.8h6.49a24,24,0,0,0-.77-6.41c-.52-1.83-1.35-2.75-2.49-2.75s-2,.88-2.47,2.65a22,22,0,0,0-.76,6.08Z"/><path class="cls-5" d="M210.81,27.13h-10v-.8h2V9.6h-2V8.8h8v4.74a7.44,7.44,0,0,1,1.3-3.18,4.5,4.5,0,0,1,2.07-1.64,6.76,6.76,0,0,1,2.19-.39,5.58,5.58,0,0,1,2,.37,2.64,2.64,0,0,1,1.46,1.52,2.93,2.93,0,0,1,0,2.27,2.81,2.81,0,0,1-1.54,1.61,2.55,2.55,0,0,1-2,.12,2.62,2.62,0,0,1-1.31-1,4.62,4.62,0,0,1-.56-1.18c-.27-1-.62-1.47-1.08-1.47s-1.06.87-1.67,2.61a16.51,16.51,0,0,0-.92,5.51v7.61h2Z"/></g></g></svg>
