<?xml version="1.0" standalone="no"?>
<!DOCTYPE svg PUBLIC "-//W3C//DTD SVG 20010904//EN"
 "http://www.w3.org/TR/2001/REC-SVG-20010904/DTD/svg10.dtd">
<svg version="1.0" xmlns="http://www.w3.org/2000/svg"
 width="648.000000pt" height="648.000000pt" viewBox="0 0 648.000000 648.000000"
 preserveAspectRatio="xMidYMid meet">
<metadata>
Created by potrace 1.11, written by Peter Selinger 2001-2013
</metadata>
<g transform="translate(0.000000,648.000000) scale(0.100000,-0.100000)"
fill="#000000" stroke="none">
<path d="M3187 6474 c-1 -1 -36 -5 -77 -9 -144 -12 -228 -23 -325 -41 -11 -3
-33 -7 -50 -10 -198 -35 -512 -127 -700 -204 -129 -53 -385 -181 -385 -192 0
-4 -6 -8 -14 -8 -20 0 -205 -122 -331 -217 -120 -92 -318 -278 -412 -389 -23
-27 -51 -60 -63 -74 -154 -180 -377 -572 -475 -835 -36 -96 -99 -292 -110
-338 -3 -12 -18 -78 -35 -147 -41 -172 -69 -332 -85 -485 -4 -33 -8 -73 -11
-90 -26 -199 -26 -708 0 -907 11 -83 19 -135 22 -153 6 -27 15 -82 19 -114 2
-14 4 -26 5 -26 1 0 3 -11 6 -24 10 -52 54 -220 74 -276 11 -33 21 -62 21 -65
1 -3 7 -20 15 -39 8 -18 14 -39 14 -46 0 -6 3 -15 7 -19 4 -3 8 -14 9 -22 9
-58 273 -535 313 -564 4 -3 18 -21 31 -40 13 -19 29 -40 35 -46 5 -6 28 -32
50 -59 66 -80 233 -242 337 -326 53 -44 99 -79 103 -79 3 0 15 -9 26 -19 35
-32 243 -158 364 -220 210 -109 549 -236 707 -266 10 -2 22 -6 26 -9 5 -3 24
-8 43 -11 19 -3 42 -8 51 -11 24 -7 79 -18 203 -40 119 -21 131 -23 203 -30
37 -3 81 -8 97 -11 17 -2 120 -6 230 -8 211 -3 346 7 427 31 10 3 28 7 40 10
13 2 95 22 183 44 88 23 168 43 178 45 64 15 420 128 472 150 17 7 73 30 125
50 93 36 411 189 500 241 392 228 747 557 962 894 40 62 129 220 133 235 1 6
17 41 35 80 51 110 123 319 135 392 1 11 6 30 9 41 4 11 9 30 11 41 3 12 7 29
9 40 5 21 15 80 21 126 3 17 7 40 9 53 14 65 21 210 21 407 0 221 -8 346 -30
493 -3 17 -7 49 -10 70 -3 20 -9 51 -12 67 -4 17 -8 39 -9 50 -3 34 -17 100
-48 230 -27 108 -84 290 -127 399 -48 120 -131 300 -141 304 -5 2 -8 8 -8 13
0 5 -18 39 -40 75 -22 36 -40 68 -40 70 0 8 -126 182 -181 249 -168 208 -408
411 -639 543 -146 84 -439 210 -550 238 -8 2 -67 17 -130 34 -63 17 -128 32
-145 35 -16 2 -41 7 -55 10 -14 3 -43 7 -65 9 -22 3 -47 7 -55 10 -8 3 -46 8
-85 11 -38 4 -92 9 -120 11 -81 8 -393 8 -480 0 -123 -11 -167 -15 -205 -22
-19 -3 -46 -7 -60 -9 -57 -8 -88 -14 -150 -30 -36 -9 -76 -18 -89 -21 -99 -21
-274 -101 -331 -152 -106 -95 -71 -231 66 -256 30 -6 62 7 126 50 65 44 263
107 408 129 25 4 52 9 61 10 21 4 116 14 198 21 77 7 351 7 431 0 294 -24 562
-85 800 -181 105 -43 330 -155 350 -175 3 -3 39 -27 80 -55 78 -52 89 -60 149
-110 51 -43 251 -246 281 -285 14 -19 30 -38 35 -44 20 -22 94 -133 146 -221
71 -117 134 -248 184 -380 39 -104 91 -271 96 -312 1 -5 5 -18 10 -31 5 -13
11 -35 14 -50 2 -15 12 -58 20 -97 9 -38 18 -90 21 -115 3 -25 7 -51 10 -59 3
-8 7 -40 10 -70 3 -31 7 -62 10 -70 25 -77 24 -612 -1 -762 -3 -14 -7 -41 -10
-60 -6 -47 -14 -84 -31 -159 -21 -86 -19 -79 -34 -130 -8 -25 -14 -47 -14 -50
-2 -8 -47 -133 -57 -155 -30 -70 -93 -198 -119 -245 -35 -60 -145 -225 -160
-240 -3 -3 -35 -41 -72 -85 -80 -97 -204 -217 -318 -309 -47 -37 -94 -75 -104
-83 -17 -14 -179 -120 -246 -161 -14 -9 -27 -15 -29 -13 -2 1 -7 -2 -10 -7 -8
-13 -261 -139 -386 -192 -121 -52 -262 -104 -370 -137 -44 -13 -87 -27 -95
-29 -8 -3 -17 -6 -20 -6 -3 0 -16 -5 -30 -10 -35 -13 -354 -96 -431 -112 -13
-3 -58 -13 -99 -22 -110 -25 -515 -24 -640 1 -14 3 -40 6 -58 7 -18 1 -35 5
-38 10 -3 4 -9 6 -14 3 -5 -3 -47 1 -92 10 -85 17 -112 22 -150 29 -13 3 -75
19 -138 36 -63 17 -119 32 -125 33 -5 1 -16 6 -22 10 -7 5 -13 6 -13 3 0 -5
-20 1 -95 30 -11 4 -23 8 -27 9 -5 2 -10 4 -13 5 -3 1 -8 3 -12 5 -5 1 -17 5
-28 10 -11 4 -40 16 -65 26 -84 32 -261 118 -348 169 -118 69 -122 71 -163
103 -20 15 -42 27 -48 27 -6 0 -11 4 -11 8 0 4 -12 15 -27 24 -16 9 -37 25
-48 35 -11 10 -38 31 -59 47 -40 30 -240 227 -286 281 -14 17 -46 57 -70 90
-25 33 -48 61 -52 63 -5 2 -8 7 -8 11 0 5 -21 42 -47 82 -68 106 -67 105 -118
207 -79 160 -158 375 -179 487 -1 6 -5 16 -10 23 -4 7 -6 16 -3 19 3 2 -1 26
-8 51 -8 26 -17 65 -20 87 -4 22 -8 51 -10 65 -2 14 -9 54 -14 90 -32 207 -35
687 -6 926 14 114 26 203 30 225 3 13 7 42 9 64 4 42 56 272 85 380 46 170
192 551 220 575 3 3 18 31 33 62 15 32 53 98 85 149 32 50 63 99 68 108 6 9
16 23 23 31 7 8 36 47 64 85 29 39 66 86 83 105 57 66 240 246 290 286 27 21
59 47 70 57 42 38 240 174 295 202 19 10 37 21 40 25 8 11 289 146 360 173 36
13 74 28 85 32 11 5 22 9 25 10 3 0 48 15 100 32 80 27 120 39 195 59 71 19
274 62 325 69 14 2 41 6 60 9 35 5 77 10 180 22 52 5 220 12 320 14 117 1 188
120 127 211 -40 61 -73 70 -235 67 -79 -2 -144 -4 -145 -4z"/>
<path d="M2878 4804 c-3 -3 -20 -6 -98 -19 -77 -13 -318 -108 -340 -135 -3 -3
-21 -16 -41 -28 -129 -78 -264 -220 -343 -360 -34 -60 -91 -198 -100 -243 -9
-45 -15 -71 -20 -87 -21 -71 -29 -355 -12 -436 40 -196 144 -359 327 -511 39
-32 136 -93 248 -157 76 -43 331 -168 501 -245 30 -14 89 -41 130 -60 41 -20
107 -50 145 -68 414 -190 552 -290 628 -455 25 -54 30 -80 33 -155 8 -273
-154 -479 -417 -530 -60 -11 -265 -12 -329 -2 -14 3 -43 7 -65 11 -289 46
-566 192 -782 411 -86 88 -173 200 -214 275 -13 25 -27 47 -31 48 -5 2 -8 8
-8 12 0 5 -13 37 -29 72 -68 147 -104 294 -115 478 -3 41 -5 79 -5 83 -1 4
-29 7 -63 5 l-62 -3 0 -722 -1 -723 45 -1 c47 -1 73 1 78 6 2 2 6 22 8 46 11
90 58 158 126 179 100 31 176 16 356 -73 73 -36 239 -108 317 -137 58 -22 172
-53 280 -76 99 -22 259 -37 395 -37 85 0 247 10 285 18 11 3 31 7 45 9 14 2
48 10 75 16 28 6 57 13 65 15 34 8 129 45 190 74 210 100 368 252 465 449 35
71 84 205 91 252 5 25 9 45 18 89 17 78 24 267 13 356 -14 106 -38 177 -106
318 -59 121 -91 161 -219 268 -186 156 -278 207 -754 423 -106 48 -163 73
-223 99 -219 94 -322 140 -332 149 -7 6 -13 8 -13 5 0 -8 -128 65 -226 129
-161 105 -218 213 -215 406 1 125 38 213 127 303 120 122 258 156 534 131 41
-4 82 -9 90 -11 8 -2 30 -7 48 -10 32 -5 107 -25 171 -44 47 -14 221 -100 239
-117 7 -8 19 -14 27 -14 7 0 15 -3 17 -7 2 -5 26 -26 53 -47 219 -173 340
-406 360 -691 2 -22 3 -46 4 -52 1 -9 20 -13 61 -13 l60 0 1 43 c0 23 1 280 2
570 l2 528 -64 -3 -65 -3 -2 -45 c-6 -109 -59 -174 -133 -165 -20 3 -94 23
-166 46 -230 72 -329 101 -370 109 -22 4 -62 12 -90 18 -27 6 -77 14 -110 18
-33 3 -73 9 -90 11 -37 5 -403 12 -407 7z"/>
</g>
</svg>
