<?xml version="1.0" standalone="no"?>
<!DOCTYPE svg PUBLIC "-//W3C//DTD SVG 20010904//EN"
 "http://www.w3.org/TR/2001/REC-SVG-20010904/DTD/svg10.dtd">
<svg version="1.0" xmlns="http://www.w3.org/2000/svg"
 width="828.000000pt" height="828.000000pt" viewBox="0 0 828.000000 828.000000"
 preserveAspectRatio="xMidYMid meet">
<metadata>
Created by potrace 1.11, written by Peter Selinger 2001-2013
</metadata>
<g transform="translate(0.000000,828.000000) scale(0.100000,-0.100000)"
fill="#000000" stroke="none">
<path d="M2317 8273 c-3 -3 -25 -7 -49 -9 -24 -2 -54 -6 -68 -9 -25 -5 -54
-11 -108 -20 -57 -10 -205 -56 -305 -96 -157 -62 -326 -157 -452 -254 -122
-94 -322 -293 -354 -353 -6 -11 -17 -26 -24 -34 -35 -36 -89 -126 -146 -244
-84 -170 -130 -313 -176 -544 -10 -50 -18 -110 -21 -145 -1 -22 -5 -65 -8 -95
-30 -285 31 -612 157 -840 17 -30 35 -64 41 -75 6 -11 14 -22 17 -25 4 -3 15
-19 25 -36 56 -91 243 -284 356 -367 82 -60 145 -104 158 -110 8 -4 35 -21 60
-37 25 -16 60 -37 78 -47 17 -9 32 -20 32 -25 0 -4 7 -8 15 -8 9 0 34 -11 56
-26 22 -14 115 -64 207 -111 92 -47 173 -90 180 -95 6 -6 12 -8 12 -5 0 3 44
-16 98 -42 53 -26 144 -69 202 -96 l106 -48 -64 -124 c-35 -69 -65 -130 -66
-136 -2 -7 -12 -33 -24 -60 -24 -52 -91 -241 -98 -272 -2 -11 -8 -31 -14 -45
-10 -26 -50 -181 -55 -215 -2 -11 -10 -54 -18 -95 -8 -41 -18 -95 -21 -120 -3
-25 -8 -58 -11 -75 -6 -34 -13 -110 -21 -205 -7 -89 -6 -384 1 -445 3 -27 7
-68 9 -90 2 -22 7 -60 11 -84 l6 -43 -30 22 c-17 12 -31 19 -31 15 0 -3 -17 6
-37 20 -21 14 -41 25 -46 25 -4 0 -20 8 -35 19 -15 10 -67 45 -115 76 -49 32
-94 63 -100 69 -7 6 -30 24 -52 40 -22 16 -53 42 -70 58 -16 15 -41 37 -54 48
-217 183 -450 485 -578 750 -52 107 -121 272 -127 305 -1 6 -10 35 -19 65 -17
60 -20 70 -42 180 -27 132 -47 304 -49 432 -1 31 -4 59 -8 63 -5 5 -123 9
-190 6 -17 -1 -18 -68 -18 -1251 l0 -1251 107 3 c97 3 106 5 109 23 1 11 5 43
8 70 9 81 16 107 43 157 62 114 153 164 310 173 124 7 218 -24 522 -174 100
-49 181 -86 181 -84 0 3 6 1 13 -5 16 -13 291 -121 328 -129 16 -3 32 -10 35
-14 3 -5 14 -9 25 -9 10 0 19 -4 19 -10 0 -18 111 -324 162 -445 28 -66 79
-178 115 -250 72 -142 68 -136 136 -250 66 -110 70 -117 84 -132 7 -7 22 -31
34 -53 13 -22 26 -40 31 -40 4 0 8 -4 8 -9 0 -5 9 -20 20 -33 11 -12 53 -63
93 -113 73 -89 239 -260 294 -302 15 -12 37 -30 48 -40 11 -10 43 -34 70 -53
28 -19 59 -42 69 -52 11 -10 24 -18 28 -18 5 0 14 -5 21 -10 93 -78 435 -236
587 -271 19 -4 53 -13 75 -19 60 -16 76 -19 125 -26 25 -3 48 -8 51 -10 7 -4
46 -9 179 -23 79 -9 502 -7 517 2 4 3 37 8 72 12 92 9 134 15 151 20 8 2 31 7
50 10 31 5 161 32 200 40 8 2 42 11 75 20 33 9 65 18 70 19 6 1 16 5 22 9 7 5
13 6 13 3 0 -7 229 73 340 120 101 42 364 186 419 229 9 7 56 44 105 80 158
119 328 296 436 455 25 36 47 67 50 70 3 3 11 15 18 28 6 12 18 32 25 45 6 12
15 24 18 27 20 15 170 357 185 420 2 8 15 53 29 100 14 47 28 99 31 115 5 29
9 50 17 90 3 11 8 40 12 65 4 25 9 52 10 61 3 15 15 128 21 204 3 31 4 185 3
325 0 20 -19 226 -24 270 -10 79 -47 255 -71 337 -84 294 -191 450 -304 442
-68 -5 -130 -71 -130 -139 0 -31 30 -97 50 -110 37 -25 129 -277 146 -403 2
-16 6 -32 9 -37 2 -4 7 -29 10 -56 3 -27 8 -60 11 -74 3 -14 7 -44 7 -67 1
-24 4 -43 7 -43 6 0 8 -57 8 -245 0 -247 -11 -355 -62 -584 -10 -42 -47 -169
-65 -216 -38 -103 -45 -120 -93 -217 -43 -88 -163 -284 -193 -314 -6 -6 -27
-31 -46 -54 -55 -69 -168 -178 -254 -247 -117 -93 -114 -90 -195 -140 -41 -25
-86 -53 -100 -62 -14 -8 -32 -16 -40 -18 -8 -1 -16 -7 -18 -12 -2 -6 -8 -11
-13 -11 -6 0 -34 -11 -62 -24 -61 -29 -112 -49 -113 -44 0 2 -7 -2 -15 -9 -11
-9 -174 -73 -186 -73 -2 -1 -8 -2 -15 -4 -46 -15 -166 -49 -178 -51 -8 -2 -51
-11 -95 -20 -44 -9 -87 -18 -95 -20 -13 -2 -79 -13 -189 -30 -157 -25 -569
-25 -685 0 -11 2 -34 7 -51 9 -86 14 -237 52 -285 73 -19 8 -46 17 -59 19 -37
7 -258 117 -329 163 -34 23 -67 41 -72 41 -6 0 -10 3 -10 8 0 4 -17 18 -38 32
-20 14 -42 29 -48 35 -7 5 -31 26 -55 45 -61 48 -215 203 -274 275 -27 33 -54
65 -60 71 -5 6 -17 22 -25 34 -8 13 -23 32 -32 42 -10 10 -18 21 -18 25 0 3
-11 21 -25 39 -14 18 -25 37 -25 43 0 6 -4 11 -9 11 -5 0 -16 15 -25 33 -9 17
-31 55 -48 82 -49 80 -162 302 -203 400 -56 137 -113 295 -106 295 3 0 22 -4
41 -10 39 -10 78 -17 140 -25 24 -3 46 -7 49 -9 3 -2 40 -7 81 -11 41 -3 89
-9 105 -11 108 -18 442 -17 643 1 96 9 189 22 282 40 14 3 34 7 45 9 39 8 188
47 234 62 60 20 65 21 73 23 19 4 179 75 242 108 76 39 265 161 306 198 14 13
47 42 74 66 270 239 473 623 541 1022 3 18 8 46 11 62 6 32 8 45 20 145 9 78
10 388 1 445 -4 22 -9 58 -12 80 -21 135 -83 305 -188 510 -106 208 -155 263
-457 505 -30 24 -72 59 -92 77 l-38 33 65 -3 c36 -1 65 1 65 4 0 4 13 4 30 -1
16 -5 32 -5 35 -1 2 5 17 7 32 4 16 -2 78 -6 138 -8 236 -10 479 -42 660 -87
44 -11 87 -22 95 -23 8 -2 15 -4 15 -5 0 -1 10 -3 23 -6 38 -7 199 -63 291
-101 189 -78 421 -210 546 -310 17 -14 43 -34 58 -46 39 -30 277 -265 306
-302 82 -105 165 -223 215 -304 51 -83 185 -347 190 -375 2 -6 10 -29 20 -51
9 -22 24 -62 32 -90 9 -27 20 -59 24 -70 8 -17 16 -43 27 -80 13 -47 45 -174
48 -190 1 -11 8 -38 13 -60 6 -22 13 -58 17 -80 3 -23 7 -50 9 -60 2 -11 7
-40 11 -65 3 -25 8 -56 10 -70 3 -14 7 -61 10 -104 7 -118 14 -143 48 -176 17
-16 34 -31 39 -31 9 -2 24 -5 36 -9 44 -14 118 24 143 73 18 34 19 51 14 140
-3 56 -8 113 -10 127 -2 14 -6 48 -10 75 -4 28 -9 59 -11 70 -2 10 -6 35 -9
55 -3 20 -7 45 -10 55 -2 11 -14 63 -26 115 -12 52 -24 110 -26 128 -3 18 -9
35 -14 38 -5 3 -9 15 -9 28 0 12 -5 27 -12 34 -7 7 -9 12 -5 12 9 0 -57 186
-115 323 -96 227 -214 432 -354 618 -129 170 -294 339 -470 479 -54 43 -199
141 -274 186 -91 53 -298 157 -340 169 -14 4 -29 11 -35 15 -9 8 -263 96 -302
105 -10 3 -45 11 -78 20 -117 29 -265 59 -355 71 -14 1 -36 5 -50 8 -193 38
-824 42 -1054 6 -32 -5 -62 -7 -67 -5 -4 3 -10 1 -14 -4 -7 -13 -16 -9 -153
55 -62 30 -114 54 -116 54 -2 0 -46 20 -98 44 -51 23 -151 69 -223 101 -71 32
-140 65 -152 72 -12 8 -26 15 -30 15 -13 1 -48 15 -218 92 -47 22 -91 40 -235
101 -74 32 -139 61 -145 65 -5 5 -14 9 -20 10 -76 16 -442 200 -577 290 -33
22 -62 40 -64 40 -10 0 -149 102 -187 136 -62 58 -154 186 -164 229 -1 5 -9
35 -17 65 -22 78 -29 148 -30 285 0 127 4 163 28 235 15 44 66 150 76 160 3 3
13 16 22 31 28 45 120 139 179 185 73 56 196 113 278 129 13 2 31 7 40 10 74
23 394 23 566 0 17 -2 54 -7 84 -10 30 -4 57 -8 61 -10 3 -2 25 -6 49 -10 24
-3 54 -10 68 -16 13 -5 38 -11 56 -14 84 -14 268 -82 402 -149 98 -48 287
-167 354 -223 61 -51 237 -227 267 -268 16 -22 31 -42 34 -45 26 -23 155 -240
144 -240 -3 0 4 -13 15 -28 22 -32 94 -243 110 -323 6 -30 12 -63 14 -74 12
-56 24 -181 26 -275 l1 -46 107 1 108 0 0 980 0 980 -107 3 -108 3 -1 -28 c-4
-177 -49 -286 -133 -330 -66 -34 -127 -22 -546 113 -74 23 -160 50 -190 59
-30 9 -66 21 -80 26 -14 5 -34 11 -45 13 -11 2 -56 13 -101 25 -89 23 -209 49
-264 57 -19 3 -53 9 -75 14 -22 4 -47 8 -55 8 -8 0 -31 3 -50 6 -19 3 -55 8
-80 10 -25 3 -45 5 -45 6 0 10 -639 23 -648 13z m563 -4015 c405 -188 720
-349 790 -405 8 -7 43 -33 77 -58 69 -51 223 -212 223 -232 0 -7 3 -13 8 -13
11 0 67 -115 92 -190 63 -189 29 -478 -81 -678 -49 -90 -142 -196 -227 -260
-21 -15 -39 -29 -42 -32 -12 -13 -150 -80 -150 -73 0 4 -4 3 -8 -3 -8 -12 -88
-40 -141 -49 -19 -3 -37 -7 -40 -9 -39 -23 -444 -24 -568 -2 -10 2 -45 7 -78
11 -101 13 -127 18 -247 48 -53 14 -101 28 -106 31 -5 3 -15 27 -22 53 -7 27
-16 53 -19 58 -3 6 -6 15 -7 20 -1 6 -6 28 -12 50 -32 119 -42 329 -29 570 4
61 9 119 11 130 2 11 7 46 11 79 8 71 12 91 30 186 9 41 17 84 19 95 2 11 12
49 21 85 9 36 18 72 20 81 2 9 20 63 40 120 20 57 38 109 39 114 2 6 8 21 14
35 25 60 35 85 37 90 3 11 52 109 88 177 l38 71 77 -35 c42 -19 106 -49 142
-65z"/>
</g>
</svg>
