<svg xmlns="http://www.w3.org/2000/svg" viewBox="0 0 2719.4 388.68"><defs><style>.cls-1{fill:#fff;}</style></defs><title>underskrift hvid</title><g id="Layer_2" data-name="Layer 2"><g id="Layer_9" data-name="Layer 9"><path class="cls-1" d="M451.66,208.85l-38.27,11.7c-.79,16.67-2,31.69-2.1,46.72-.13,22.2,1.22,44.42.6,66.59-.36,13.07-3.18,26.09-5.2,39.09-.41,2.67-1.61,5.79-3.53,7.49-2.21,2-6.49,4.3-8.29,3.38-2.73-1.39-6.13-5.77-5.73-8.33,4.41-27.9-.26-55.58-.93-83.36-.37-15.07,1.17-30.17,1.52-45.27.16-6.9-.48-13.82-.85-23-14.56,3.43-27.28,6.29-39.92,9.45-21.47,5.36-43,10.54-64.32,16.45-29.49,8.18-58.82,16.94-88.19,25.53-9.93,2.9-19.92,5.67-29.65,9.15-15.46,5.53-30.95,11.09-46,17.59-15.93,6.88-31.55,14.56-47,22.51-12.39,6.39-25.11,12.6-32.92,25.19-.81,1.32-3,2.16-4.75,2.44-5.07.83-10.26,2-15.31,1.7C7.87,353,1.76,348.84.25,340.31-1.55,330,6.57,326,13.47,322.61c20.26-9.92,40.54-20,61.54-28.14,31.58-12.25,63.47-23.91,95.8-34,39.14-12.2,78.72-23.09,118.4-33.4,29.15-7.57,58.8-13.25,88.2-19.87,10.18-2.29,11.63-4,10.81-16.15-1.58-23.54-3.93-47-5.48-70.58s-3.07-47.13-3.45-70.71c-.18-10.73,2.08-21.56,3.88-32.23.93-5.53,2.62-11.63,10.36-11.12,6.66.44,13.37,7.35,13.92,13.92a15.37,15.37,0,0,1-.17,4.24c-7.17,35.77-1.33,71.5.53,107.21,1.1,21.16,3,42.27,4.74,65.6l39.11-8a72.14,72.14,0,0,0,.7-7.68c-1.2-51.12,3.48-101.8,11.86-152.16,1.14-6.84,4-13.55,7.06-19.86C474.93,2.08,481.74-1.42,486.8.54c6.19,2.39,10.32,11.41,8.46,18.72s-3.88,14.54-5.77,21.82C478.71,82.44,475,124.62,475,167.23c0,3.77.36,7.54.71,11.3.08.84.78,1.63,2.2,4.4,7.86-1.47,16.46-2.82,24.93-4.71,11.88-2.65,23.6-6.08,35.52-8.48,23.55-4.74,47.21-9,70.82-13.45a31.56,31.56,0,0,1,4.14-.83c19.9-1,39.08-5.67,58.41-10.23,23.78-5.61,48-9.65,72.09-13.62,12.31-2,20.85-6.55,23.33-20,1.16-6.33,4.43-12.48,7.69-18.17,5.95-10.37,16.9-11.07,24-1.56,3.93,5.24,8,10.88,10,17,9.64,28.91,15.36,58.37,6.55,88.6-2.33,8-6.56,15.46-10.11,23.08-2.13,4.59-4.62,9-6.73,13.09,11.8,15,29.5,16,58.3,3.56.28-3.61,1.09-7.76.85-11.86-1.63-27.74,19.8-53.42,48.3-62.58,4.67-1.5,11.57-.23,15.87,2.36,5.56,3.33,4.33,10.11,2,15.5-7.52,17.55-10.57,37.28-25.23,51.4-2.62,2.53-4.17,6.17-6.83,10.24,13.17,15,30.82,13.72,48.1,13.78,3,7.49.31,10.08-6.67,12.2-24.07,7.33-46.54,6.81-64.82-9.78-16.31,4.28-30.92,9.54-46,11.67-16,2.27-29.86-6.62-43.21-14-16.38,10.95-32.42,21.43-48.21,32.27-20.44,14-43.22,15.54-66.53,11.81-8.7-1.39-15.61-.51-22.46,4.75-6,4.58-12.63,8.27-18.49,13-13.21,10.63-29.52,12.29-45,13.45-25.86,1.95-50.7-3.34-72.08-19.75-18.47-14.18-31.48-32.52-39.8-53.89C461,242.88,457.23,227.21,451.66,208.85ZM634.14,285c-1.74-3.62-2.78-6.2-4.16-8.6a52.37,52.37,0,0,1-6.48-34.17c1.67-11.63,4.06-23.23,14.81-30.87,13.94-9.92,29-6,35.89,9.56,4.68,10.59,3.61,21.18.63,31.8-2,7.11-4.38,14.11-7,22.29,15,2.38,28.22.53,41.4-3.53,17.42-5.37,32.27-15.25,46.75-25.88,12.66-9.29,14.05-12.07,9.45-27.43-7-23.49-7.89-47.27-5.4-71.41.35-3.35-.35-6.82-.52-9.55-15.88,4-30.38,7.64-44.91,11.2-9.6,2.35-19.25,4.48-28.86,6.8-21.06,5.08-42,10.68-63.18,15.23-35.85,7.7-71.89,14.49-107.74,22.19-12.72,2.73-25.11,7-38.12,10.68,1.87,40.17,13.92,74,49.25,94.25C563.68,319.12,599.29,309.67,634.14,285ZM793.25,131.5c-9.82,25.82-10.22,49.78-7.73,75.72C799.73,192.45,803.56,155.66,793.25,131.5ZM656.78,241.23c-9.08,6.33-9.14,6.55-5.61,17.48Zm228.89-28,3.05,2.41,10.09-13.78-2.65-2Z"/><path class="cls-1" d="M2551.48,128.49c-3,2.51-4.16,4.41-5.66,4.68-18.06,3.21-36.1,6.58-54.26,9.09-15.87,2.2-31.92,3.12-47.83,5.06-9.62,1.17-13.75,5.52-12.58,15.24a117.88,117.88,0,0,0,7.13,28.61c5.13,13.11,11.81,25.6,17.79,38.38,1.2,2.56,2.12,5.25,3.33,7.82,2.6,5.54,1.77,10.28-3.62,13.42-5.75,3.35-10.5.31-13.34-4.25-7-11.19-13.39-22.74-19.7-34.33-4-7.42-7.46-15.17-12.1-24.69-4,4.66-7.66,8-10.16,12.14-11.88,19.51-31.23,28.67-51.41,35.25-15.07,4.91-31.3,6.32-47.06,9-22,3.74-38.58-5.2-51.44-22.51-1.12-1.51-2.27-3-3.47-4.47a2.47,2.47,0,0,0-1-.53c-12.52,4.3-24.78,8.71-37.2,12.64a29.26,29.26,0,0,1-11.18,1c-8.56-.77-12.53-5.21-13.08-13.7-.86-13.52,3.2-25.14,13.38-34.35,14.06-12.73,29.38-22.22,50-18.27,5-10.69,9.45-21.05,14.58-31.09a56.2,56.2,0,0,1,9.59-13.78c4.24-4.31,9.89-5.5,15.56-2,5.21,3.24,8.79,7.83,7.09,14.11a194.7,194.7,0,0,1-8.23,23.87c-4.51,10.85-10.3,21.2-14.4,32.19-6.86,18.38.61,31.4,20.14,33,13.46,1.09,27.32-.36,40.76-2.32,9.69-1.42,19.25-4.91,28.39-8.64,14.17-5.77,23.61-17,30.47-30.27,4.21-8.15,7.63-16.71,12.81-28.2-23.75,5.85-45.37,2.33-65,12.09a20.52,20.52,0,0,1-10.94,1.88c-5.22-.61-10.39-2.71-10.91-9.18-.48-5.89.52-10.92,7-13.94,13.95-6.5,28.73-9.07,43.8-10.72,10.74-1.17,21.48-2.39,33.47-3.72,1-6.74,1.92-13.14,2.92-19.52,1.24-7.9,2-15.93,4-23.65,1.54-6,6.34-9.46,12.79-9s10.67,4.18,11.59,10.49a52.18,52.18,0,0,1-.07,13.87c-1,8.27-2.66,16.48-4.37,26.67,15,.26,28,.39,41,.75,13.67.38,27.33,1,41,1.49C2523.89,128.51,2536.86,123.53,2551.48,128.49Zm-309,57.84c-13.6-4.44-25.41,3.08-32.53,19.89C2229.41,204.49,2238.06,199.2,2242.49,186.33Z"/><path class="cls-1" d="M1327.36,250.76c-27.09,21.11-113,18.41-150.26-2.26a170.1,170.1,0,0,1-60.41,10.57c-14.32-.15-24-8.13-30.92-19.41-5.91-9.57-10.55-19.92-15.76-29.92-1.06-2-2.19-4.05-3.9-7.22-3.72,1.78-7.14,3-10.11,4.91-20.16,13-40,26.48-60.39,39-12.14,7.48-19.67,4.92-26.38-8-3-5.78-4.76-12.23-6.82-18.47-3.83-11.61-7.51-23.27-11.14-34.95-1.68-5.42-1.84-10.28,5-12.5s11.66-.51,14.62,6.88c3.51,8.74,6.23,17.8,9.4,26.68,1.71,4.79,3.64,9.49,5.88,15.3,18.67-10.35,36.38-19.86,53.75-29.95,8.46-4.91,16.39-10.78,24.39-16.45,14.54-10.32,23.1-7,27.25,10A282.27,282.27,0,0,0,1102,218.68c4.5,11.78,14.1,17.38,26.58,17.62,11.7.22,23.61,1.12,34.5-6.48-3.52-9.84-6.86-19.48-10.43-29a34.37,34.37,0,0,1,.15-24.94c6-15.74,14.2-29.8,29.41-38.55,15.67-9,29.6-1.62,28.35,16.32-1.51,21.58-4.59,43.08-7.82,64.5-2,13.6-2.13,15.51,11.31,19.4,13.08,3.78,26.46,7.21,39.94,8.71,18.24,2,36.7,2,55.06,3C1314.07,249.43,1319,250,1327.36,250.76Zm-140.83-35.35c9.66-18.49,8.71-36.56,11.87-55.8C1178.63,172.31,1173.28,196.86,1186.53,215.42Z"/><path class="cls-1" d="M2094.37,158l-3.82-9.38c5.51-3.59,10.17-8.55,15.7-9.88,15.94-3.81,30.82-10.4,46.21-15.61,1.32-.45,2.91-1,4.13-.66,2.53.73,6,1.44,7,3.3s.5,6-1,7.44c-5,4.81-10.34,9.62-16.34,13-9.12,5.17-10.95,6.5-8.34,16.37a159.38,159.38,0,0,1,4.87,51.77c-1.09,16.43-6.08,24.19-21.89,29-11.65,3.57-23.77,5.8-35.82,7.82-12.49,2.09-25.22,2.81-37.69,5a17.25,17.25,0,0,0-10,6.61c-2.89,4.09-4.64,9.25-5.84,14.21-2.94,12.09-1.85,13.74,9.72,19.45,1.94,1,3.6,2.46,6.11,4.22-5.8,7.77-12.72,6.19-19.3,4.35-8.29-2.31-14.17-7.5-15.7-16.38-1.81-10.49-.22-20.66,3.75-30.48a57,57,0,0,1,2.51-5.21c-6.6-9.54-13.18-17-17.36-25.58-6.56-13.48-2.11-27.17,4-39.45a117.14,117.14,0,0,1,19.12-27.78c14.28-15.14,32.54-17.84,52.19-12.5a15.55,15.55,0,0,1,6.23,3.14c1.59,1.43,3.64,4.15,3.2,5.6-.68,2.21-3,4.86-5.2,5.5-7.66,2.28-15.74,3.22-23.29,5.78-5.16,1.75-10.62,4.47-14.3,8.33a156.68,156.68,0,0,0-18.2,23.2c-7.17,11.13-4.46,22.12,6.82,30.74Zm-37.43,76.52c20,2.54,37.74-1.1,55-7.74,7.19-2.76,11.17-7.75,10.66-16.25-.54-8.86.38-17.8.14-26.69-.1-3.83-1.52-7.62-2.46-12C2099.19,184.25,2066.07,217,2056.94,234.5Z"/><path class="cls-1" d="M2589.69,125.15c24.07,15,46.31,28.17,67.83,42.45,18.09,12,35.5,25.28,48.23,43.23,7.84,11,15.29,22.67,13.34,37.52-1.59,12.11-8.15,21.19-17.6,27.94-19.71,14.07-41.06,24.28-65.33,28.7-21.78,4-43.13,10.25-64.75,15.12-23.43,5.28-47,10.08-70.46,15.14-8.49,1.83-16.07,8.35-25.74,5.08-3.5-6.9.83-9.61,6.09-11.29,17-5.45,34-11.15,51.22-15.87,33.63-9.21,67.61-17.14,101-27,14.32-4.22,27.67-11.8,41.38-18a46.1,46.1,0,0,0,8.42-5.2c15.69-11.76,17.52-21,7-37.31-11.49-17.84-28.82-29.51-45.54-41.62-11-7.94-22.55-15.12-34.24-22-6.82-4-14.38-6.72-21.67-9.88-1.7-.74-3.72-.71-5.5-1.31-24-8.1-27.94-23.77-10.51-42.49,13.73-14.74,31.89-21.46,50.72-26.4,10.31-2.71,19.38,2.38,28.26,6.76,3.95,1.95,7.23,5,5.69,10.1s-5.38,7.52-10.64,7.72c-9.4.36-18.91,0-28.19,1.25C2606.86,109.44,2597.64,116.21,2589.69,125.15Z"/><path class="cls-1" d="M1884.76,375.23c2-1.35,3.2-2.86,4.27-2.77,18.74,1.48,29-11.65,36.64-24.63,22.11-37.73,28.12-78.55,18.31-121.54-1.89-8.28-5.94-11.09-14.34-12.21-14.87-2-29.86-4.76-44.08-9.39-23-7.51-41-21.78-54-43-10.38-17.07-19-34.7-25-53.63a52.76,52.76,0,0,1-2.25-18.1c.14-2.89,3.28-6.41,6-8.23,4.05-2.71,8.58-1.34,11,2.81a124.92,124.92,0,0,1,7.07,15.15c6.59,15.58,11.94,31.8,19.82,46.68,16.77,31.69,45.61,43.27,79.79,44.58a29.41,29.41,0,0,0,4.25,0c18.8-2,26.5,4.25,33.15,23.46,7.41,21.42,7.83,43.75,5.38,65.83-2.77,24.92-8.69,49.5-21.21,71.44-9.33,16.36-21.61,30.68-41.28,36C1897,390.61,1890.66,387.68,1884.76,375.23Z"/><path class="cls-1" d="M1626.94,217.2c-8.71,13.94-27,14.46-29.67,31.7,3.09,1.13,6,3.17,8.79,3,9.37-.44,18.83-1,28-2.72,18.88-3.62,29.41-16.85,33.74-34.33,4.12-16.65-3.07-30.6-15.48-41.61-7-6.23-15-11.35-22.3-17.33-10.73-8.82-20.62-18.19-19.89-33.92.49-10.56,4.49-19.73,12.54-26,12.23-9.52,25.14-18.15,41.15-20.62,13.49-2.08,23.37,3.51,27.28,16.25,2.53,8.27-2.42,13.82-11.16,12.71-5.52-.69-11.11-1.65-16.62-1.37a33,33,0,0,0-12.08,3.49c-22.39,10.66-24,19.33-6.78,36.24,9.72,9.54,20.18,18.35,29.58,28.18,16.46,17.22,17.91,37.43,9.87,59.77-9.83,27.31-30.28,36.88-56.23,39.88-12.7,1.47-25.14,1.24-37.7-2.94-15.3-5.1-21.27-29.07-5.76-38.65,9.46-5.84,20.15-9.83,30.61-13.79C1617.65,214.12,1621.65,216.21,1626.94,217.2Z"/><path class="cls-1" d="M1789.39,168.75a39.1,39.1,0,0,1-22.83,10.42c-20.39,2.35-39.79,27-38.27,47.43.56,7.45,6.06,14.67,14.26,15.06,18.24.87,36.55.49,54.82.37,5.91,0,11.81-.85,20.46-1.53-2.95,4.43-3.81,7.34-5.68,8.3-24.11,12.42-50,16.12-76.76,14.7-14.76-.79-33-19.61-31.31-42.76,3-40.58,23.84-56.7,59.28-61.87C1772.27,157.58,1783.28,157.69,1789.39,168.75Z"/><path class="cls-1" d="M1958.67,67.69c-9.12-2.92-18.84-4.93-27.34-9.31-3.28-1.69-4.8-8.68-5.27-13.43-.53-5.31,4.84-6.18,8.9-7.31a10.22,10.22,0,0,1,4.21-.26c8.74,1.38,13.7,7.71,18.4,14.31C1960.91,56.37,1964,61.16,1958.67,67.69Z"/></g></g></svg>
