<svg xmlns="http://www.w3.org/2000/svg" viewBox="0 0 185.04 207.13"><defs><style>.cls-1{fill:none;stroke:#e2c7b5;stroke-linecap:round;stroke-linejoin:round;stroke-width:7px;}.cls-2{fill:#154cad;}</style></defs><title>favicon</title><g id="Layer_2" data-name="Layer 2"><g id="Layer_9" data-name="Layer 9"><path class="cls-1" d="M181.54,136.19s-.65-65.93-71.19-67.63C63.76,67.44,48.21,96.83,44,119.92"/><path class="cls-2" d="M5.37,153.09H0V90.51H5.37q0,25.25,18.13,43t44.18,17.73q10.74,0,17.32-6.31t6.58-16.79q0-11.82-15.31-20.14Q68,103.68,47.54,94.41T18.8,78.7Q2.14,65.8,4.16,44.59t16-32.9A47.87,47.87,0,0,1,51.7,0,100,100,0,0,1,83.4,4.7q14.1,4.7,16,4.7,5.37,0,5.37-9.4h5.37V49.15h-5.37q0-19.34-14.24-31.56T54,5.37q-9.94,0-15.58,5.77T32.77,23.9q0,7,1.88,10.74a18.19,18.19,0,0,0,6.58,6.85q4.7,3.09,8.19,5t11.15,5.1q7.65,3.22,10.61,4.57l17.46,7.92q2.68,1.21,7.79,3.89a44.81,44.81,0,0,1,7.65,4.83q2.55,2.15,6.58,5.37a23.28,23.28,0,0,1,5.91,6.58q1.88,3.36,3.76,7.65,3.76,8.6,2.69,20.14-2.15,21.76-16.25,33.17t-38,11.41q-21.49,0-42.71-11-7.25-3.76-10.74-3.76Q5.37,142.35,5.37,153.09Z"/><path class="cls-1" d="M44,119.92c-2.16,11.87-1.33,22.08-.18,25.62,3.39,10.44,16.82,69.53,77.06,56.11s46.86-75.86,39.86-81.86"/></g></g></svg>
