<svg xmlns="http://www.w3.org/2000/svg" viewBox="0 0 123.01 136.04"><defs><style>.cls-1,.cls-2{fill:none;stroke:#f8f4f1;stroke-linecap:round;stroke-linejoin:round;}.cls-1{stroke-width:4px;}.cls-2{stroke-width:5px;}</style></defs><title>Aktiv 25</title><g id="Lag_2" data-name="Lag 2"><g id="udstillinger"><path class="cls-1" d="M22.29,15.45s35.54-30.26,77.48,0"/><path class="cls-1" d="M100.78,120.11c-15.63,11.74-47.81,24.38-77.48,0"/><path class="cls-2" d="M108.51,108.52h-94a12,12,0,0,1-12-12v-54a12,12,0,0,1,12-12h94a12,12,0,0,1,12,12v54A12,12,0,0,1,108.51,108.52Z"/><path class="cls-2" d="M8.15,34.31l46.4,38a5.51,5.51,0,0,0,6.72.21L116,33.1"/></g></g></svg>
