<svg xmlns="http://www.w3.org/2000/svg" viewBox="0 0 286.66 304.41"><defs><style>.cls-1{fill:none;stroke:#e2c7b5;stroke-linecap:round;stroke-linejoin:round;stroke-width:8px;}.cls-2{fill:#154cad;}</style></defs><title>favicon_opbrudt</title><g id="Layer_2" data-name="Layer 2"><g id="Layer_9" data-name="Layer 9"><path class="cls-1" d="M271.24,96.52C221.93,11.37,157.8,14.08,113.44,32.37"/><path class="cls-1" d="M4,204.87c55.18,165.12,271.34,83.24,278.66,0"/><path class="cls-1" d="M149.07,4S45.44,2.07,11,96.56"/><path class="cls-2" d="M78.36,248.11H72.13V175.59h6.23q0,29.26,21,49.8t51.19,20.54q12.45,0,20.08-7.32t7.62-19.45q0-13.68-17.74-23.34-9.65-5-33.3-15.72t-33.3-18.2Q74.61,147,77,122.37T95.47,84.25Q111.66,70.71,132,70.71t36.73,5.45q16.33,5.45,18.52,5.44,6.21,0,6.22-10.89h6.22v57h-6.22q0-22.41-16.49-36.57T134.69,76.93q-11.52,0-18,6.7T110.1,98.41c0,5.4.73,9.54,2.18,12.45a21,21,0,0,0,7.63,7.93q5.43,3.58,9.49,5.76t12.91,5.91c5.92,2.49,10,4.26,12.3,5.3l20.23,9.18q3.1,1.4,9,4.51a51.83,51.83,0,0,1,8.87,5.6q3,2.49,7.63,6.23a26.93,26.93,0,0,1,6.84,7.62q2.18,3.9,4.36,8.87,4.35,10,3.11,23.34-2.49,25.21-18.83,38.44t-44,13.23q-24.92,0-49.49-12.77-8.4-4.35-12.45-4.35Q78.35,235.66,78.36,248.11Z"/></g></g></svg>
