<svg xmlns="http://www.w3.org/2000/svg" viewBox="0 0 315.32 323.69"><defs><style>.cls-1{fill:#154cad;}.cls-2{fill:none;stroke:#e2c7b5;stroke-linecap:round;stroke-linejoin:round;stroke-width:14px;}</style></defs><title>favicon_cirkel</title><g id="Layer_2" data-name="Layer 2"><g id="Layer_9" data-name="Layer 9"><path class="cls-1" d="M92.54,260.81H86.31V188.3h6.23q0,29.25,21,49.79t51.19,20.55q12.45,0,20.08-7.32t7.62-19.45q0-13.69-17.74-23.34-9.64-5-33.3-15.72t-33.3-18.2q-19.3-14.94-17-39.53T109.66,97q16.17-13.54,36.57-13.54T183,88.86q16.34,5.46,18.52,5.45,6.22,0,6.22-10.89h6.23v57h-6.23q0-22.41-16.49-36.57T148.87,89.64q-11.52,0-18.05,6.69t-6.54,14.79q0,8.09,2.18,12.44a21.09,21.09,0,0,0,7.63,7.94q5.44,3.58,9.49,5.76t12.92,5.91q8.87,3.74,12.29,5.29,17.11,7.78,20.23,9.18t9,4.52a51.22,51.22,0,0,1,8.87,5.6q3,2.49,7.63,6.22a27.16,27.16,0,0,1,6.85,7.63c1.44,2.59,2.9,5.55,4.35,8.87q4.37,10,3.11,23.34Q226.36,239,210,252.26t-44,13.22q-24.9,0-49.49-12.76-8.4-4.35-12.45-4.35Q92.54,248.37,92.54,260.81Z"/><path class="cls-2" d="M168,7.05S20.94-.24,7.8,156.79C-.87,260.5,62.58,299.05,113.51,311.48"/><path class="cls-2" d="M113.51,311.48c26.17,6.4,49,5.89,57.09,3.8,23.71-6.17,157.22-28.27,135.29-164.35S143,36.41,128.7,51.22"/></g></g></svg>
