<svg xmlns="http://www.w3.org/2000/svg" viewBox="0 0 809.26 27.48"><defs><style>.cls-1{fill:#f2a6a3;}.cls-2{fill:#5777b2;}.cls-3{fill:#e2c7b5;}.cls-4{fill:#b0d3d7;}.cls-5{fill:#f8f4f1;}</style></defs><title>Aktiv 8</title><g id="Lag_2" data-name="Lag 2"><g id="Lag_1-2" data-name="Lag 1"><polygon class="cls-1" points="0 0 0 14.07 0 27.28 808.94 27.28 808.94 0 0 0"/><rect class="cls-2" x="88.05" y="15.99" width="212.13" height="11.3"/><rect class="cls-2" x="373.09" y="16.88" width="176.42" height="10.4"/><rect class="cls-3" x="254.55" width="272.41" height="13.64"/><rect class="cls-2" x="554.92" y="14.64" width="58.16" height="12.54"/><rect class="cls-2" x="612.38" y="14.66" width="196.56" height="12.63"/><rect class="cls-4" x="548.7" width="260.56" height="13.64"/><rect class="cls-4" width="128.65" height="14.07"/><rect class="cls-2" x="304.36" y="16.88" width="67.53" height="10.4"/><rect class="cls-2" y="19.19" width="38.55" height="8.3"/><rect class="cls-2" x="44.64" y="19.39" width="43.41" height="7.89"/><polyline class="cls-5" points="0 14.07 118.75 13.63 127.83 0 140.02 0 132.76 13.64 242.41 13.64 250.98 0 260.98 0 254.55 13.64 517.37 9.98 525.23 0 534.51 0 528.8 7.03 541.66 7.03 546.65 0 559.51 0 553.8 9.98 808.94 7.03 808.94 16.88 613.07 16.88 624.5 27.28 611.65 27.28 600.22 16.88 556.65 16.88 565.94 27.28 549.51 27.28 539.83 16.88 373.09 16.88 382.65 27.28 371.89 27.28 362.33 16.88 304.36 16.88 310.34 27.28 300.18 27.28 294.2 16.88 89.82 18.31 96.19 27.28 85.03 27.28 78.32 18.98 44.63 19.39 50.32 27.28 38.55 27.28 33.27 18.58 0 18.98"/></g></g></svg>
