<svg xmlns="http://www.w3.org/2000/svg" viewBox="0 0 150.1 146.49"><defs><style>.cls-1,.cls-2,.cls-3{fill:none;stroke:#e2c7b5;}.cls-1{stroke-miterlimit:10;}.cls-1,.cls-2{stroke-width:4px;}.cls-2,.cls-3{stroke-linecap:round;stroke-linejoin:round;}.cls-3{stroke-width:3px;}</style></defs><title>tlf_baige</title><g id="Lag_2" data-name="Lag 2"><g id="SoMe_ikoner"><path class="cls-1" d="M19.79,23.87a27.47,27.47,0,0,0-9.25,19.85c-.3,12.56,4.61,32.39,29.5,55.93,40.53,38.3,70.93,43.89,87,22a6,6,0,0,0-.71-7.92l-22-20.68a3.48,3.48,0,0,0-4.72,0L89,102.69a6.75,6.75,0,0,1-8.13.73C72,97.86,52.45,83.94,46,66a6.49,6.49,0,0,1,1.59-6.81l9.32-9.11a4,4,0,0,0,.21-5.48L33.91,18a5,5,0,0,0-7.06-.45Z"/><path class="cls-2" d="M42.88,9.06a73.74,73.74,0,0,1,98.55,97.33"/><path class="cls-2" d="M86.11,143.76A73.76,73.76,0,0,1,2,70.79a73.45,73.45,0,0,1,.48-8.44"/><path class="cls-3" d="M70.85,23.08a45.37,45.37,0,0,1,57.53,43.65c0,.82,0,1.64-.07,2.45"/><path class="cls-3" d="M77.7,35.79a31.28,31.28,0,0,1,37.57,30.63"/></g></g></svg>
