<svg xmlns="http://www.w3.org/2000/svg" viewBox="0 0 921.25 576.81"><defs><style>.cls-1,.cls-2{fill:none;stroke:#e2c7b5;stroke-linecap:round;stroke-linejoin:round;}.cls-1{stroke-width:9px;}.cls-2{stroke-width:4px;}.cls-3{font-size:29.68px;font-family:OpenSans, Open Sans;letter-spacing:0.09em;}.cls-3,.cls-4{fill:#154cad;}.cls-4{stroke:#fff;stroke-miterlimit:10;}</style></defs><title>logo_blå_med_beige_kant</title><g id="Layer_2" data-name="Layer 2"><g id="Layer_10" data-name="Layer 10"><path class="cls-1" d="M706.69,181.73C612.22,18.61,489.37,23.81,404.4,58.84"/><path class="cls-1" d="M194.75,389.29c105.71,316.3,519.78,159.46,533.8,0"/><path class="cls-1" d="M472.65,4.51S274.13.81,208.15,181.81"/><path class="cls-2" d="M411.75,466.81c.19-5.94,99.15,5.16,104-.39"/><text class="cls-3" transform="translate(385.15 507.83) scale(1.1 1)">EST 2010</text><path class="cls-4" d="M5.16,362.2H.5V307.94H5.16A50.19,50.19,0,0,0,20.88,345.2q15.71,15.36,38.3,15.37,9.32,0,15-5.48t5.71-14.55q0-10.25-13.28-17.46-7.21-3.72-24.91-11.76T16.8,297.69Q2.36,286.52,4.11,268.12T18,239.6a41.49,41.49,0,0,1,27.37-10.13,86.8,86.8,0,0,1,27.47,4.07q12.23,4.08,13.86,4.08,4.65,0,4.66-8.15H96v42.61H91.32q0-16.77-12.35-27.36T47.3,234.12q-8.61,0-13.5,5a15.54,15.54,0,0,0-4.89,11.06c0,4,.54,7.14,1.63,9.32a15.78,15.78,0,0,0,5.7,5.93q4.08,2.69,7.11,4.31c2,1.09,5.24,2.56,9.66,4.43s7.49,3.18,9.2,3.95Q75,284,77.34,285c1.55.7,3.81,1.83,6.76,3.38a38.58,38.58,0,0,1,6.63,4.19q2.22,1.88,5.71,4.66a20.12,20.12,0,0,1,5.12,5.7c1.09,1.95,2.17,4.16,3.26,6.64q3.25,7.46,2.33,17.47-1.86,18.85-14.09,28.75t-32.95,9.9q-18.63,0-37-9.55-6.28-3.25-9.32-3.26Q5.16,352.88,5.16,362.2Z"/><path class="cls-4" d="M123.45,308.64q0-27.48,16.07-41.68t40.86-14.21q24.81,0,36.91,12.46t8.62,25.73a16.26,16.26,0,0,1-7.8,10.6,17.31,17.31,0,0,1-12.93,1.74q-14.67-3.5-14.67-17a101,101,0,0,1,.82-10.59,63.55,63.55,0,0,0,.58-10.36,11.26,11.26,0,0,0-1.4-5.13q-2.32-3.94-10.94-3-21,3.26-21,51.34t34.23,48.09a35,35,0,0,0,16.07-4.19q8.15-4.2,12.11-10l3.26,2.33q-5.37,8.85-16.07,14.21a52.89,52.89,0,0,1-24,5.35Q123.45,364.29,123.45,308.64Z"/><path class="cls-4" d="M363.59,357.54h11.64v4.66H317v-4.66h11.64v-65.2q0-16.53-4.89-23.52t-14.67-7q-13.28,0-21.19,14v81.73h11.64v4.66H241.34v-4.66H253V210.84H241.34v-4.66h46.57v61q4.43-6.29,13.74-10.48a49.39,49.39,0,0,1,20.49-4.19q41.44,0,41.45,44.94Z"/><path class="cls-4" d="M405.5,362.2V259.74H393.86v-4.66h46.57V362.2q0,51.23-46.11,51.23-17.7,0-25.61-6.64t-7.92-16.18a11,11,0,0,1,3.61-8.74,12.56,12.56,0,0,1,8.5-3.14q12.57,0,12.57,15t8.85,15q6.53,0,8.85-11.29T405.5,362.2Zm17.35-158.58a19.46,19.46,0,0,1,14.43,6,20.05,20.05,0,0,1,5.94,14.56,20.28,20.28,0,0,1-20.37,20.37,20.05,20.05,0,0,1-14.56-5.94,19.45,19.45,0,0,1-6.05-14.43,20.66,20.66,0,0,1,20.61-20.61Z"/><path class="cls-4" d="M582.3,309.1a55.44,55.44,0,0,1-5.36,24.69,46.59,46.59,0,0,1-14.2,17.46,65.23,65.23,0,0,1-40.17,13.28,59.71,59.71,0,0,1-39.47-14.21l-14.9,14.21-3.26-3.26,14.9-14q-14.91-14.9-14.9-38.19a59,59,0,0,1,5.24-25.38A46.25,46.25,0,0,1,484,266a66.38,66.38,0,0,1,40.52-13.28A59.9,59.9,0,0,1,564.14,267L579,252.75,582.3,256l-14.9,14.21Q582.3,285.58,582.3,309.1Zm-58.92-51.69q-12.57,0-17.69,12t-5.13,39.7q0,10,.7,17.7l44-41.91q-1.86-14.2-7.1-20.84T523.38,257.41Zm0,102.46q12.58,0,17.94-11.88t5.35-38.89c0-6.82-.23-13-.7-18.62l-44.24,42.14q1.86,14.2,7.1,20.73T523.38,359.87Z"/><path class="cls-4" d="M645.74,365q-18.86,0-32.6-14.9t-13.73-42.15q0-27.24,13.5-42.61T645.74,250a41.48,41.48,0,0,1,17.94,4,24.41,24.41,0,0,1,12.1,11.87v-55H664.14v-4.66h46.57V357.54h11.65v4.66H675.78V351.49Q669.5,365,645.74,365Zm30-53.79V272.78q-6.28-12.57-16.41-12.58T642,271.85q-7.21,11.64-7.22,36.91t7.45,36.9q7.46,11.65,17.93,10Q666,354.75,669,352,675.78,345.44,675.78,311.2Z"/><path class="cls-4" d="M781.5,259.74v56.82q0,20,1.63,24.33a43.91,43.91,0,0,0,3.49,7.34q3.5,6,12.23,6T811.07,352v4.66a41.39,41.39,0,0,1-24.45,7.92q-19.56,0-29.8-9.32t-10.25-33.3V259.74H729.34v-4.66h17.23a35,35,0,0,0,19.8-10.83q8.61-9,11.87-24.8h3.26v35.63h27v4.66Z"/><path class="cls-4" d="M875.11,360.33q24.21,0,24.22-13.27,0-7.46-8.39-12.22a81.43,81.43,0,0,0-20.25-7.8q-11.88-3-23.41-7a43.77,43.77,0,0,1-19.09-12.58q-7.58-8.61-6.17-22.58t14.32-23.06q12.92-9.07,31.9-9.08t30.62,6.06q11.64,6.06,13,16.3a18.18,18.18,0,0,1-2,11.64q-2.91,5.36-9.55,5.59a15.25,15.25,0,0,1-10.94-3.49q-4.3-3.74-4.07-8.62a13.59,13.59,0,0,1,3.72-8.73q3.49-3.84,3.49-6.17,0-4-7.56-5.94a69.37,69.37,0,0,0-17.47-2q-9.9,0-16.18,4.42c-4.19,3-6.29,6.6-6.29,10.95s2.6,8.07,7.8,11.18a72.92,72.92,0,0,0,19,7.56Q883,294.45,894.09,298A46.16,46.16,0,0,1,913,309.57q7.8,7.92,7.8,20,0,16.06-11.41,25.73T874.88,365q-23.05,0-37.38-7t-15.72-17.93a17.75,17.75,0,0,1,2.1-11.65,10.68,10.68,0,0,1,9.55-5.59,15.16,15.16,0,0,1,10.83,3.5q4.31,3.72,4.07,8.61a13.65,13.65,0,0,1-3.73,8.73c-2.32,2.57-3.49,4.63-3.49,6.18q0,4.65,10.83,7.56A88.55,88.55,0,0,0,875.11,360.33Z"/></g></g></svg>
